<svg  viewBox="0 0 15 15" fill="none" xmlns="http://www.w3.org/2000/svg">
<path d="M10.7 5.5H9.09998" stroke="#fff" stroke-width="0.5" stroke-linecap="round" stroke-linejoin="round"/>
<path d="M3.5 9.89999H3.25C3.25 10.0381 3.36193 10.15 3.5 10.15V9.89999ZM3.5 7.25C3.36193 7.25 3.25 7.36193 3.25 7.5C3.25 7.63807 3.36193 7.75 3.5 7.75V7.25ZM3.5 5.5V5.25C3.36193 5.25 3.25 5.36193 3.25 5.5H3.5ZM6.44999 6.5C6.44999 6.91421 6.11421 7.25 5.7 7.25V7.75C6.39035 7.75 6.94999 7.19035 6.94999 6.5H6.44999ZM5.7 5.75C6.11421 5.75 6.44999 6.08579 6.44999 6.5H6.94999C6.94999 5.80964 6.39035 5.25 5.7 5.25V5.75ZM6.84999 8.69999C6.84999 9.22466 6.42467 9.64999 5.9 9.64999V10.15C6.70081 10.15 7.34999 9.50081 7.34999 8.69999H6.84999ZM5.9 7.75C6.42467 7.75 6.84999 8.17533 6.84999 8.69999H7.34999C7.34999 7.89918 6.70081 7.25 5.9 7.25V7.75ZM5.9 9.64999H3.5V10.15H5.9V9.64999ZM5.9 7.25H3.5V7.75H5.9V7.25ZM5.7 5.25H3.5V5.75H5.7V5.25ZM3.75 9.89999V5.5H3.25V9.89999H3.75Z" fill="#fff"/>
<path d="M8.30002 8.3C8.30002 9.18366 9.01636 9.9 9.90002 9.9C10.3058 9.9 10.6763 9.74895 10.9583 9.5M8.30002 8.3C8.30002 7.41635 9.01636 6.7 9.90002 6.7C10.7837 6.7 11.5 7.41635 11.5 8.3H8.30002Z" stroke="#fff" stroke-width="0.5" stroke-linecap="round" stroke-linejoin="round"/>
</svg>
