<svg viewBox="0 0 15 15" version="1.1" xmlns="http://www.w3.org/2000/svg" xmlns:xlink="http://www.w3.org/1999/xlink">
    <g id="Page-1" stroke="none" stroke-width="1" fill-rule="evenodd">
        <g id="Group-3">
            <rect id="Rectangle" fill-opacity="0" x="0" y="0" width="15" height="15"></rect>
            <g id="Group-2" transform="translate(3.000000, 5.000000)" fill-rule="nonzero">
                <path d="M6.65002,1.2 C7.6717587,1.2 8.5,2.02826633 8.5,3.05 C8.5,3.18807119 8.38807119,3.3 8.25,3.3 L8.25,3.3 L5.32323411,3.30059562 C5.44071041,3.92644522 5.99005903,4.4 6.65002,4.4 C6.9837054,4.4 7.29790052,4.27882164 7.54284734,4.06258224 C7.64635531,3.97120526 7.80434078,3.98103937 7.89571776,4.08454734 C7.98709474,4.18805531 7.97726063,4.34604078 7.87375266,4.43741776 C7.53829298,4.73356205 7.10674735,4.9 6.65002,4.9 C5.62828881,4.9 4.80002,4.07173119 4.80002,3.05 L4.80558596,2.9054239 C4.87934173,1.95127039 5.67694574,1.2 6.65002,1.2 Z M6.65002,1.7 C5.99215078,1.7 5.44418918,2.17056725 5.323,2.8 L5.323,2.8 L7.976,2.8 C7.86382499,2.21208497 7.37905214,1.76341815 6.78003514,1.70617982 L6.78003514,1.70617982 Z M7.45,0 C7.58807119,0 7.7,0.111928813 7.7,0.25 C7.7,0.368346732 7.61776659,0.467486821 7.50732271,0.493397322 L7.45,0.5 L5.84998,0.5 C5.71190881,0.5 5.59998,0.388071187 5.59998,0.25 C5.59998,0.131653268 5.68221341,0.0325131786 5.79265729,0.00660267821 L5.84998,0 L7.45,0 Z" id="Combined-Shape"></path>
                <path d="M0.25,4.64999 L0,4.64999 C0,4.7881 0.11193,4.9 0.25,4.9 L0.25,4.64999 Z M0.25,2 C0.11193,2 0,2.11193 0,2.25 C0,2.38807 0.11193,2.5 0.25,2.5 L0.25,2 Z M0.25,0.25 L0.25,0 C0.11193,0 0,0.11193 0,0.25 L0.25,0.25 Z M3.19999,1.25 C3.19999,1.66421 2.86421,2 2.45,2 L2.45,2.5 C3.14035,2.5 3.69999,1.94035 3.69999,1.25 L3.19999,1.25 Z M2.45,0.5 C2.86421,0.5 3.19999,0.83579 3.19999,1.25 L3.69999,1.25 C3.69999,0.55964 3.14035,0 2.45,0 L2.45,0.5 Z M3.59999,3.44999 C3.59999,3.97466 3.17467,4.39999 2.65,4.39999 L2.65,4.9 C3.45081,4.9 4.09999,4.25081 4.09999,3.44999 L3.59999,3.44999 Z M2.65,2.5 C3.17467,2.5 3.59999,2.92533 3.59999,3.44999 L4.09999,3.44999 C4.09999,2.64918 3.45081,2 2.65,2 L2.65,2.5 Z M2.65,4.39999 L0.25,4.39999 L0.25,4.9 L2.65,4.9 L2.65,4.39999 Z M2.65,2 L0.25,2 L0.25,2.5 L2.65,2.5 L2.65,2 Z M2.45,0 L0.25,0 L0.25,0.5 L2.45,0.5 L2.45,0 Z M0.5,4.64999 L0.5,0.25 L0,0.25 L0,4.64999 L0.5,4.64999 Z" id="Shape"></path>
            </g>
        </g>
    </g>
</svg>
