<svg width="15" height="15" viewBox="0 0 15 15" fill="none" xmlns="http://www.w3.org/2000/svg">
<path fill-rule="evenodd" clip-rule="evenodd" d="M4.26614 5.58112C4.31879 5.39112 4.49416 5.25 4.70001 5.25H10.3C10.5059 5.25 10.6812 5.39112 10.7339 5.58112L7.50001 7.84483L4.26614 5.58112ZM3.75002 5.69588C3.74998 5.69828 3.74997 5.70067 3.75001 5.70306V9.9C3.75001 10.4231 4.17694 10.85 4.70001 10.85H10.3C10.8231 10.85 11.25 10.4231 11.25 9.9V5.70305C11.25 5.70069 11.25 5.69832 11.25 5.69595M10.75 6.18016V9.9C10.75 10.1469 10.5469 10.35 10.3 10.35H4.70001C4.45308 10.35 4.25001 10.1469 4.25001 9.9V6.18016L7.35664 8.3548C7.44272 8.41506 7.55729 8.41506 7.64337 8.3548L10.75 6.18016ZM11.25 5.69595C11.2478 5.17473 10.8217 4.75 10.3 4.75H4.70001C4.17831 4.75 3.75225 5.17469 3.75002 5.69588" fill="#fff"/>
</svg>
