<svg  viewBox="0 0 15 15" fill="none" xmlns="http://www.w3.org/2000/svg">
<path d="M6.65385 10.0013C5.11538 10.5006 5.11538 9.169 4.5 9.00255M8.80769 11V9.71164C8.81923 9.5529 8.79941 9.39332 8.74954 9.24351C8.69967 9.09369 8.6209 8.95708 8.51846 8.84275C9.48462 8.72623 10.5 8.33007 10.5 6.51239C10.4999 6.04759 10.3347 5.60062 10.0385 5.26399C10.1787 4.85734 10.1688 4.40786 10.0108 4.00892C10.0108 4.00892 9.64769 3.8924 8.80769 4.50162C8.10246 4.29483 7.35907 4.29483 6.65385 4.50162C5.81385 3.8924 5.45077 4.00892 5.45077 4.00892C5.29273 4.40786 5.28281 4.85734 5.42308 5.26399C5.12465 5.60312 4.95924 6.05413 4.96154 6.52238C4.96154 8.32674 5.97692 8.72291 6.94308 8.85274C6.84185 8.96592 6.76377 9.10089 6.71394 9.24887C6.66411 9.39686 6.64363 9.55453 6.65385 9.71164V11" stroke="#fff" stroke-width="0.5" stroke-linecap="round" stroke-linejoin="round"/>
</svg>
