<svg viewBox="0 0 15 15" version="1.1" xmlns="http://www.w3.org/2000/svg" xmlns:xlink="http://www.w3.org/1999/xlink">
    <g id="Page-1" stroke="none" stroke-width="1" fill-rule="evenodd">
        <rect id="Rectangle" fill-opacity="0" x="0" y="0" width="15" height="15"></rect>
        <path d="M9.69336016,4.00051758 L9.77849847,4.00854833 L9.83724947,4.02193727 L9.99329687,4.16792586 C10.150795,4.56559878 10.1791131,5.00657328 10.0767735,5.42083528 L10.0640624,5.46006133 L10.0954329,5.4989837 C10.3194675,5.80786886 10.456649,6.17869076 10.4913338,6.56765827 L10.5000624,6.76345142 C10.5000624,8.24505436 9.89877125,8.97729382 8.7996738,9.25162695 L8.68206241,9.27706133 L8.73680489,9.41560949 C8.78202397,9.55144808 8.80678411,9.69373238 8.81074172,9.82953633 L8.80775241,9.96270142 L8.80775241,11.2510613 C8.80775241,11.3891325 8.6958236,11.5010613 8.55775241,11.5010613 C8.43940568,11.5010613 8.34026559,11.4188279 8.31435509,11.308384 L8.30775241,11.2510613 L8.30841042,9.94457488 C8.3175679,9.81860804 8.30184468,9.69202576 8.26239836,9.57352861 C8.22326028,9.45594955 8.16176149,9.34929277 8.08232926,9.260641 C7.94737133,9.11001879 8.03780472,8.86982472 8.23858903,8.8456099 C9.42321841,8.70274225 10.0000624,8.17794455 10.0000624,6.76350521 C9.99997536,6.35885216 9.85649812,5.97071268 9.60087452,5.68019758 C9.54149535,5.61271342 9.52291644,5.5185463 9.55221484,5.43356629 C9.6384694,5.18338502 9.65874776,4.91398695 9.61373652,4.65533811 L9.57906241,4.50506133 L9.53640734,4.51364549 C9.37820013,4.54876135 9.14851792,4.65109331 8.8410713,4.85925482 L8.70452905,4.95505884 L8.48740829,4.99258078 C7.91052021,4.82342365 7.30663687,4.80227901 6.72300686,4.92914668 L6.47425746,4.99258051 L6.25713578,4.95505884 C5.88022915,4.68170282 5.60607258,4.55377834 5.42527504,4.51364567 L5.38106241,4.50506133 L5.34792684,4.65535867 C5.31190845,4.86227321 5.31768826,5.07605798 5.36561981,5.2813722 L5.40947744,5.43352993 C5.43879487,5.51852268 5.42021662,5.61271214 5.360822,5.68020702 C5.10325276,5.97290365 4.95959407,6.36457906 4.96157875,6.77344142 C4.96157875,8.17505189 5.53396432,8.6957871 6.72643748,8.85602846 C6.92524743,8.88274401 7.01321278,9.12094999 6.87948245,9.27046693 C6.80098004,9.35823639 6.74002738,9.46360699 6.700932,9.57970844 C6.67465483,9.65774893 6.6586782,9.73934229 6.65350553,9.8268082 L6.65391241,11.2510613 C6.65391241,11.3891325 6.5419836,11.5010613 6.40391241,11.5010613 C6.28556568,11.5010613 6.18642559,11.4188279 6.16051509,11.308384 L6.15391241,11.2510613 L6.15471701,10.5778091 C5.50500744,10.7115583 5.0874531,10.5251212 4.70850943,10.0685976 L4.5448566,9.85407175 L4.47686238,9.76148146 C4.37450367,9.62463189 4.3026084,9.55065732 4.23505057,9.51493935 L4.18478725,9.49493932 C4.05150554,9.45888884 3.97268404,9.32161798 4.00873452,9.18833626 C4.03963493,9.07409479 4.14490133,8.99986491 4.25827934,9.00369017 L4.31533757,9.01228352 C4.53782577,9.07246286 4.68703677,9.20769135 4.87725312,9.46200316 L5.01582899,9.65069319 C5.3303759,10.0720732 5.59582332,10.210606 6.15387083,10.0654407 L6.15443968,9.97892961 C6.1421098,9.78938493 6.16682034,9.59909812 6.22707446,9.42014956 L6.2513953,9.35344871 L6.28106241,9.28306133 L6.15761162,9.25488722 C5.10961756,8.98224359 4.51945118,8.31125323 4.4656235,6.97942075 L4.4615817,6.77465675 C4.45929628,6.30453788 4.60693849,5.84907392 4.87805707,5.48288581 L4.89606241,5.45906133 L4.88491822,5.42087183 C4.79715487,5.06578808 4.80542917,4.69106462 4.90880011,4.34079725 L4.96840594,4.16790572 L5.12443963,4.02193911 L5.18319216,4.00854874 C5.45424405,3.96597887 5.85229997,4.07841235 6.38637646,4.43568665 L6.45206241,4.48106133 L6.58535904,4.44752075 C7.1758965,4.31427835 7.78575864,4.31427833 8.37630198,4.44752056 L8.50906241,4.48106133 L8.57528864,4.43568668 C9.00255136,4.14986736 9.34276705,4.02074637 9.60054759,4.00232598 L9.69336016,4.00051758 Z" id="Combined-Shape" fill-rule="nonzero"></path>
    </g>
</svg>
