<svg  viewBox="0 0 15 15" xmlns="http://www.w3.org/2000/svg">
<path fill-rule="evenodd" clip-rule="evenodd" d="M4.25 4.7C4.25 4.45147 4.45147 4.25 4.7 4.25C4.94853 4.25 5.15 4.45147 5.15 4.7C5.15 4.94853 4.94853 5.15 4.7 5.15C4.45147 5.15 4.25 4.94853 4.25 4.7ZM4.7 3.75C4.17533 3.75 3.75 4.17533 3.75 4.7C3.75 5.22467 4.17533 5.65 4.7 5.65C5.22467 5.65 5.65 5.22467 5.65 4.7C5.65 4.17533 5.22467 3.75 4.7 3.75ZM8.89999 6.34999C8.40934 6.34999 7.93878 6.5449 7.59184 6.89184C7.2449 7.23878 7.04999 7.70934 7.04999 8.19999V10.4H7.94999V8.19999C7.94999 7.94803 8.05008 7.7064 8.22823 7.52824C8.40639 7.35008 8.64803 7.24999 8.89999 7.24999C9.15194 7.24999 9.39358 7.35008 9.57174 7.52824C9.7499 7.7064 9.84998 7.94803 9.84998 8.19999V10.4H10.75V8.19999C10.75 7.70934 10.5551 7.23878 10.2081 6.89184C9.86119 6.5449 9.39064 6.34999 8.89999 6.34999ZM8.89999 5.84999C8.27673 5.84999 7.679 6.09758 7.23829 6.53829C6.79758 6.979 6.54999 7.57673 6.54999 8.19999V10.65C6.54999 10.7881 6.66192 10.9 6.79999 10.9H8.19999C8.33806 10.9 8.44999 10.7881 8.44999 10.65V8.19999C8.44999 8.08064 8.4974 7.96618 8.58179 7.88179C8.66618 7.7974 8.78064 7.74999 8.89999 7.74999C9.01933 7.74999 9.13379 7.7974 9.21818 7.88179C9.30257 7.96618 9.34998 8.08064 9.34998 8.19999V10.65C9.34998 10.7881 9.46191 10.9 9.59998 10.9H11C11.1381 10.9 11.25 10.7881 11.25 10.65V8.19999C11.25 7.57673 11.0024 6.979 10.5617 6.53829C10.121 6.09758 9.52324 5.84999 8.89999 5.84999ZM3.75 6.45C3.75 6.31193 3.86193 6.2 4 6.2H5.4C5.53807 6.2 5.65 6.31193 5.65 6.45V10.65C5.65 10.7881 5.53807 10.9 5.4 10.9H4C3.86193 10.9 3.75 10.7881 3.75 10.65V6.45ZM4.25 6.7V10.4H5.15V6.7H4.25Z" />
</svg>
