<svg viewBox="0 0 15 15" version="1.1" xmlns="http://www.w3.org/2000/svg" xmlns:xlink="http://www.w3.org/1999/xlink">
    <g id="Page-1" stroke="none" stroke-width="1" fill-rule="evenodd">
        <rect id="Rectangle" fill-opacity="0" x="0" y="0" width="15" height="15"></rect>
        <path d="M5.75673412,3.74996757 L4.70324886,3.74996757 C4.57055109,3.75018139 4.43968709,3.77781483 4.31864614,3.83117901 C4.19753093,3.88457593 4.08886571,3.96256179 3.99956502,4.06018403 C3.91021784,4.15788547 3.84223669,4.2730521 3.79994181,4.39839088 C3.75763217,4.52377338 3.74194108,4.65658068 3.75387863,4.78834141 C3.8739429,5.91709124 4.25744145,6.99798412 4.87367288,7.94732986 C5.43256283,8.82514542 6.17983669,9.57093674 7.06122657,10.1299066 C8.00604985,10.7414708 9.08366961,11.1240345 10.2055565,11.2456477 C10.3419435,11.2581211 10.4752658,11.2423551 10.6012204,11.1999183 C10.7273635,11.1572365 10.8428945,11.0890058 10.9406531,10.9993711 C11.0385226,10.9098947 11.116686,10.8007348 11.1698792,10.6790147 C11.2230753,10.5577336 11.2503393,10.4263766 11.2497968,10.2935823 L11.2497989,9.24084375 C11.2555554,9.01335281 11.175084,8.78568624 11.0236191,8.60741329 C10.8724271,8.42928848 10.6608915,8.31284079 10.4292454,8.28023422 C10.1077959,8.2379096 9.794349,8.15997742 9.49265882,8.04762306 C9.32257911,7.98381369 9.13713508,7.96995974 8.95885396,8.00791322 L8.85378861,8.03662366 C8.71645033,8.08272064 8.59093532,8.15963774 8.48717746,8.26202951 L8.178,8.571 L8.09099404,8.51883025 C7.44115159,8.10228022 6.88872594,7.55094933 6.47137024,6.90243103 L6.419,6.816 L6.72763128,6.50936454 C6.85692196,6.37887714 6.94535978,6.21537164 6.98342938,6.0372162 C7.02150792,5.85901894 7.00760115,5.673656 6.94335935,5.50312222 C6.83103908,5.20269747 6.75297846,4.88995913 6.71088373,4.5714483 C6.67815409,4.34021034 6.56344418,4.13088138 6.38786453,3.98017924 C6.21239829,3.82957445 5.98809848,3.74779514 5.75673412,3.74996757 Z M4.70359103,4.24997861 L5.75912886,4.24997861 C5.87181614,4.248932 5.97868739,4.28789706 6.06221318,4.35958825 C6.14565817,4.4312101 6.20012448,4.53060321 6.21550768,4.63925111 C6.26223784,4.99291772 6.34947487,5.34241997 6.47524001,5.67880346 C6.50593487,5.76028703 6.51253079,5.84820388 6.49446833,5.9327313 C6.47640146,6.01727939 6.43440762,6.09491838 6.37343591,6.15645709 L5.7923318,6.73641158 L5.88683092,6.90227306 C6.4101451,7.82077546 7.17213739,8.58126056 8.09239989,9.10350227 L8.2577887,9.19735912 L8.8393793,8.61692652 C8.90009756,8.55701326 8.97803017,8.51502896 9.06294598,8.49695806 C9.1479161,8.47886914 9.23629236,8.48547146 9.31759338,8.51597306 C9.65512621,8.64167659 10.0052203,8.72872033 10.3617712,8.77565547 C10.4698845,8.79088366 10.5705565,8.84630233 10.642501,8.93106284 C10.7144769,9.0157779 10.7526437,9.12375784 10.7498767,9.23460512 L10.7497989,10.2946037 C10.7500173,10.3585908 10.7371385,10.4208372 10.7118535,10.4784846 C10.6865586,10.5363654 10.6495619,10.5880335 10.6030105,10.6305929 C10.5563387,10.6733859 10.5013388,10.7058679 10.4412709,10.7261926 C10.3814403,10.7463506 10.3179499,10.7538586 10.2552018,10.7481367 C9.21518447,10.6353617 8.21216042,10.2792801 7.33096223,9.70891099 C6.50959465,9.18799403 5.81489813,8.49467575 5.2942525,7.67694504 C4.71965134,6.79171579 4.36281386,5.78596727 4.25145573,4.73933391 C4.24617801,4.68074208 4.25362064,4.61774865 4.2736959,4.55825662 C4.29377155,4.49876344 4.32605987,4.4440639 4.36851711,4.39763677 C4.41097192,4.35122579 4.46268667,4.31411162 4.52035157,4.28868849 C4.57801813,4.26326462 4.64042724,4.25008622 4.70359103,4.24997861 Z" id="Path" fill-rule="nonzero"></path>
    </g>
</svg>
