<svg  viewBox="0 0 15 15" fill="none" xmlns="http://www.w3.org/2000/svg">
<path d="M10.9998 9.24084V10.2946C11.0002 10.3925 10.9801 10.4893 10.9408 10.5789C10.9016 10.6686 10.844 10.749 10.7717 10.8151C10.6995 10.8813 10.6142 10.9316 10.5214 10.963C10.4285 10.9943 10.3301 11.006 10.2325 10.9971C9.14948 10.8797 8.10915 10.5104 7.19512 9.91878C6.34473 9.37947 5.62374 8.65992 5.08337 7.81121C4.48855 6.89485 4.11838 5.85153 4.00286 4.76578C3.99406 4.66865 4.00563 4.57075 4.03682 4.47832C4.06801 4.38589 4.11815 4.30096 4.18403 4.22892C4.24992 4.15689 4.33011 4.09934 4.4195 4.05993C4.50889 4.02052 4.60553 4.00013 4.70325 4.00003H5.75913C5.92994 3.99836 6.09553 4.05872 6.22504 4.16988C6.35455 4.28104 6.43914 4.4354 6.46304 4.6042C6.50761 4.94144 6.59026 5.27256 6.70941 5.59125C6.75677 5.71697 6.76702 5.85361 6.73895 5.98497C6.71088 6.11633 6.64566 6.2369 6.55103 6.33241L6.10405 6.77851C6.60508 7.6579 7.33465 8.38603 8.21579 8.88607L8.66278 8.43997C8.75848 8.34553 8.87929 8.28044 9.01091 8.25243C9.14253 8.22441 9.27944 8.23464 9.40541 8.2819C9.72473 8.40082 10.0565 8.48331 10.3944 8.52779C10.5654 8.55186 10.7215 8.6378 10.8331 8.76928C10.9448 8.90075 11.0041 9.06858 10.9998 9.24084Z" stroke="#fff" stroke-width="0.5" stroke-linecap="round" stroke-linejoin="round"/>
</svg>
