
<svg viewBox="0 0 92 262" version="1.1" xmlns="http://www.w3.org/2000/svg" xmlns:xlink="http://www.w3.org/1999/xlink">
    <g id="Page-1" stroke="none" stroke-width="1" fill="none" fill-rule="evenodd">
        <path d="M91.9997614,261.810316 C89.8555036,259.398488 87.5768332,257.123902 85.0798651,255.0485 C84.8688651,255.1955 84.4748651,255.0505 84.4668651,254.7335 L84.4528651,254.5415 L84.2268651,254.3635 C83.7148651,254.1415 83.1998651,253.8445 82.6888651,253.4815 C82.5228651,253.5275 82.3598651,253.5745 82.1868651,253.6145 C79.3578651,255.0275 74.9518651,254.3845 72.5508651,252.5245 C72.3468651,252.3645 72.4448651,252.0515 72.6258651,251.9325 C74.7378651,250.5525 77.5838651,250.7425 80.1548651,251.4325 C77.4418651,249.6715 74.6408651,248.1495 71.7748651,246.7765 C71.7688651,246.9005 71.7028651,247.0255 71.5978651,247.0905 C71.0368651,247.4265 70.3998651,247.6445 69.7338651,247.7725 C67.5278651,248.6745 64.9808651,248.9665 62.7308651,248.0925 C62.5618651,248.0255 62.4308651,247.7815 62.6068651,247.6355 C63.0218651,247.2935 63.5018651,247.0115 63.9998651,246.7635 C63.9948651,246.6355 64.0498651,246.5075 64.1648651,246.4495 C65.8658651,245.6085 67.9748651,245.5675 69.8688651,245.8845 C67.8638651,244.9725 65.8278651,244.1175 63.7678651,243.2915 C60.9928651,245.1075 56.5798651,243.0715 54.3248651,241.2385 C54.1318651,241.0815 54.2448651,240.7505 54.4708651,240.6975 C54.9928651,240.5755 55.5238651,240.5195 56.0598651,240.4905 L55.8508651,240.2565 C55.6698651,240.0145 55.9298651,239.7295 56.1708651,239.7085 C58.0550555,239.558405 59.9015136,240.248872 61.6381468,241.034651 L62.6029446,241.481792 L63.2318651,241.7765 C63.4358651,241.8745 63.2898651,242.1735 63.0858651,242.1285 C62.8748651,242.0805 62.6638651,242.0195 62.4558651,241.9605 C62.6848651,242.0775 62.9128651,242.1915 63.1308651,242.3195 L63.1588651,242.3495 L63.9488651,242.6025 C64.0598651,242.5745 64.1618651,242.6095 64.2228651,242.6905 C65.7468651,243.1925 67.2648651,243.7595 68.7738651,244.3755 C67.7048651,243.4105 66.8448651,242.2805 66.3988651,241.1325 C66.2938651,240.8625 66.5968651,240.6635 66.8278651,240.7055 C69.0942936,241.116714 70.9748574,242.439638 72.6882745,243.949376 L73.2240526,244.4315 L73.750249,244.920971 L75.0338651,246.1435 C75.2038651,246.3045 75.1658651,246.5665 75.0248651,246.7185 L75.2028651,246.9035 C75.3238651,247.0285 75.1618651,247.2645 75.0108651,247.1575 L74.6288651,246.8535 C74.6198651,246.9205 74.5878651,246.9765 74.5388651,247.0195 C76.0658651,247.8025 77.5588651,248.6555 79.0288651,249.5495 C78.0708651,248.0485 77.4418651,246.4545 77.4108651,245.1075 C77.4068651,244.9135 77.6128651,244.7525 77.7988651,244.8095 C81.1218651,245.8455 85.0408651,250.0265 85.2388651,253.8055 C87.6593672,255.689388 89.9316471,257.742085 92.0003223,259.956206 L92.0012946,258.639196 C86.6208276,249.630887 80.6881402,240.934551 74.1988651,232.7295 C72.3288651,230.3705 70.4068651,228.0465 68.4428651,225.7545 C68.3448651,225.9075 68.0748651,225.9185 68.0298651,225.7025 L67.9158651,225.1495 C66.3088651,223.2885 64.6798651,221.4445 63.0138651,219.6255 L62.9228651,219.6765 C63.1278651,219.7705 63.2118651,220.1035 62.9638651,220.2155 C59.9794787,221.57525 55.7901461,220.155987 52.8487177,218.351097 L52.3830553,218.05541 C52.0047643,217.806818 51.6516832,217.553545 51.3298651,217.3015 C51.0818651,217.1055 51.1798651,216.6885 51.4268651,216.5465 C53.5802975,215.314716 56.3668789,215.945637 58.9223962,216.939711 L59.4861341,217.165985 L60.0401575,217.400558 L60.5823588,217.639772 L61.1106305,217.879972 L61.6228651,218.1175 C59.4778651,215.8025 57.2888651,213.5195 55.0618651,211.2705 C55.0338651,211.3745 54.9618651,211.4695 54.8268651,211.4845 L54.5088651,211.5065 L54.4778651,211.5275 C53.0338651,211.8545 51.5018651,211.8095 50.0128651,211.4865 C47.2118651,211.1965 44.4238651,210.3875 42.1248651,208.9735 C41.9138651,208.8435 41.8148651,208.4905 42.0348651,208.3135 C43.9691103,206.738745 46.4781937,206.943893 48.8961875,207.786791 L49.3949439,207.969908 C49.7262905,208.097554 50.0550303,208.235834 50.3794159,208.381752 L50.8625103,208.605982 L51.1011987,208.721691 L51.5720387,208.95889 L52.0330709,209.201926 L52.4829847,209.448551 L52.9204694,209.696516 L53.3442144,209.943575 L54.3348651,210.5425 C51.4408651,207.6395 48.4878651,204.7875 45.4758651,201.9935 C44.7448651,202.3235 43.8638651,202.3845 42.9738651,202.3135 C41.8118651,202.4475 40.5598651,202.1335 39.4028651,201.5955 C37.7868651,201.1515 36.2028651,200.5685 34.7638651,199.7115 C34.4678651,199.5335 34.4318651,199.0535 34.7608651,198.8875 C37.2023516,197.629527 39.9036941,198.482962 42.2750655,199.713471 L42.7607923,199.97287 L43.2359417,200.239617 L43.4691871,200.374679 L44.1498651,200.7815 C41.4428651,198.2945 38.7058651,195.8395 35.9258651,193.4335 C35.9168651,193.4725 35.9088651,193.5125 35.8718651,193.5505 C34.9661984,194.464875 33.3892974,194.456068 32.0709772,194.233596 L31.6643455,194.157066 L31.4695097,194.115027 L31.1008651,194.0265 C29.3818651,193.5855 27.4868651,192.8775 26.3108651,191.4805 C26.1618651,191.3025 26.1288651,190.9515 26.3918651,190.8425 C29.0578651,189.7295 32.6388651,191.1595 34.9188651,192.6035 C35.2068651,192.7865 35.2218651,193.2015 34.9238651,193.3805 C34.8678651,193.4145 34.8078651,193.4385 34.7478651,193.4705 C35.0468651,193.3995 35.3328651,193.3145 35.5978651,193.1955 C35.6168651,193.1875 35.6268651,193.1925 35.6438651,193.1895 C32.9658651,190.8785 30.2608651,188.6005 27.5338651,186.3605 C24.5158651,187.0465 20.9658651,186.9555 18.3728651,185.2085 C18.1058651,185.0285 18.0438651,184.5895 18.3698651,184.4235 C20.3239451,183.4299 22.5996571,183.817625 24.7103211,184.480159 L25.2568651,184.6585 L25.5518651,184.7505 C23.9278651,183.4325 22.3008651,182.1245 20.6628651,180.8305 C20.0163651,181.02775 19.2163026,180.933062 18.5263494,180.796609 L18.0855867,180.702198 L17.8828651,180.6555 C16.3138651,180.2935 14.5988651,179.7945 13.2198651,178.9345 C12.9828651,178.7865 12.9118651,178.3445 13.2188651,178.2145 C14.4188651,177.7055 15.7288651,177.6645 16.9848651,177.9495 C16.0528651,177.2265 15.1218651,176.5045 14.1888651,175.7895 C13.9898651,175.7075 13.7928651,175.6145 13.5928651,175.5115 C11.5218651,176.2615 8.33186507,175.1575 6.73086507,173.9885 C6.51986507,173.8345 6.52686507,173.5895 6.73086507,173.4305 C7.87186507,172.5515 9.14186507,172.5445 10.4318651,172.9345 C8.95886507,171.8245 7.48186507,170.7205 6.00386507,169.6295 C5.99386507,169.6555 5.97986507,169.6785 5.94986507,169.6965 C5.26768325,170.100864 4.32632788,169.64255 3.5739432,169.167454 L3.30153223,168.990159 L2.39061855,168.368997 C1.42389618,167.698131 0.4061984,166.904033 -0.0271349331,165.8155 C-0.0831349331,165.6805 0.00886506695,165.4665 0.140865067,165.4115 C2.56586507,164.3835 5.50386507,167.1005 6.88386507,169.1845 C8.39286507,169.9535 9.86886507,170.7965 11.3188651,171.6955 C10.5078651,170.6365 9.84386507,169.4705 9.41186507,168.2195 C9.30486507,167.9115 9.67986507,167.6895 9.93186507,167.8215 C11.0182936,168.382357 11.7641355,169.314842 12.3671526,170.351535 L12.5038651,170.5925 C12.6078651,170.779738 12.7199195,170.967811 12.8362205,171.156759 L13.554524,172.301293 C13.8201508,172.734684 14.0687222,173.172929 14.2568651,173.6165 C15.4528651,174.4375 16.6258651,175.2975 17.7868651,176.1815 C17.0218651,174.7065 16.5778651,173.1535 16.6918651,171.9565 C16.7178651,171.6555 16.9848651,171.5195 17.2538651,171.6325 C17.3697423,171.68057 17.5194683,171.772008 17.6947364,171.899717 L17.9167866,172.069926 L18.1601673,172.272232 L18.4216886,172.503911 L18.5582552,172.629914 L18.8410066,172.900545 L19.1339239,173.193737 L19.2831981,173.347943 L19.5853836,173.66987 L19.8897605,174.007549 L20.1931391,174.358255 L20.4923294,174.719264 L20.7841416,175.08785 L21.065386,175.461291 L21.2010483,175.648981 L21.4604598,176.024594 C22.504926,177.587466 23.0665142,179.099377 22.1068651,179.6735 L22.8288651,180.2975 L22.9128651,180.3275 C23.0298651,180.3625 23.0868651,180.4435 23.1078651,180.5335 C24.7608651,181.9565 26.3848651,183.4155 27.9958651,184.8925 C27.7633651,184.47925 27.5528026,184.057562 27.3586932,183.653594 L27.1698651,183.2565 C26.4758651,181.7895 25.7498651,180.2215 25.6338651,178.5845 C25.6088651,178.2375 26.0268651,178.1615 26.2468651,178.3305 C28.6228651,180.1475 30.3678651,183.2595 30.4628651,186.2665 C30.4728651,186.5135 30.3018651,186.6505 30.1088651,186.6725 C30.1638651,186.7245 30.2148651,186.7805 30.2728651,186.8255 C30.3538651,186.8925 30.3578651,186.9815 30.3368651,187.0665 L32.2260873,188.834574 L35.9721536,192.347 L35.7848861,192.066559 C34.4188121,189.976143 33.4984303,187.397152 33.7308651,185.2555 C33.7618651,184.9635 34.0788651,184.6845 34.3728651,184.8825 C37.5198651,187.0235 39.4118651,190.9045 39.8268651,194.6215 C39.8838651,195.1115 39.1888651,195.2025 38.9628651,194.8515 C38.7758651,194.5525 38.6058651,194.2465 38.4238651,193.9435 C38.3768651,193.9345 38.3338651,193.9085 38.3048651,193.8565 C37.9051984,193.171167 37.5291984,192.472611 37.1620503,191.768981 L36.0723465,189.651019 C35.7080873,188.945389 35.3378651,188.242833 34.9468651,187.5515 C34.7478651,187.1965 35.0538651,186.8765 35.3678651,186.8665 C35.1128651,186.6055 34.8498651,186.3625 34.5738651,186.1345 C34.6378651,189.1395 36.6938651,192.2745 38.5708651,194.4025 C38.6878651,194.5305 38.6598651,194.6725 38.5788651,194.7655 C39.1475317,195.286833 39.715754,195.803722 40.2829391,196.314685 L41.1328651,197.0765 C42.8188651,198.5805 44.4948651,200.0965 46.1598651,201.6185 C44.4558651,199.1655 43.3198651,196.0865 43.7768651,193.3135 C43.8208651,193.0435 44.1568651,192.9545 44.3698651,193.0655 C44.6328651,193.2045 44.8858651,193.3765 45.1318651,193.5625 C45.1628651,193.5805 45.1928651,193.6005 45.2178651,193.6275 C47.6608651,195.5335 49.2388651,199.6445 49.0988651,202.7445 C49.1998651,203.1165 49.2948651,203.4885 49.3798651,203.8565 C49.4418651,204.1105 49.2088651,204.2845 49.0018651,204.2545 C51.3678651,206.4635 53.7068651,208.7005 56.0088651,210.9685 C54.2158651,208.3705 53.1508651,204.7905 53.8268651,201.8575 C53.8878651,201.5965 54.1718651,201.5325 54.3878651,201.6255 C57.5278651,202.9635 59.4238651,207.7695 58.6598651,211.2185 C58.7658651,211.8345 58.8628651,212.4475 58.9458651,213.0445 C58.9848651,213.3345 58.5798651,213.5635 58.4288651,213.2555 L58.3276058,213.034537 L58.1428651,212.5875 C58.0508651,212.6885 57.9218651,212.7445 57.7828651,212.7465 C60.3728651,215.3455 62.9118651,217.9935 65.3918651,220.7025 C64.2694513,219.175293 63.8586154,216.229125 63.7739412,214.082703 L63.7582908,213.493118 C63.7561647,213.331978 63.7559676,213.177575 63.7574897,213.031117 L63.767004,212.616784 L63.7855758,212.257359 C63.789356,212.202433 63.7934611,212.150096 63.7978651,212.1005 C63.8338651,211.7235 64.2798651,211.6035 64.4938651,211.9145 C66.0198651,214.1445 67.0218651,216.7695 67.5388651,219.4645 C67.9908651,220.9785 68.3018651,222.5295 68.4258651,224.0885 C71.0958651,227.1285 73.6888651,230.2415 76.1748651,233.4595 C81.8285154,240.773112 87.1435701,248.426694 92.0012946,256.349097 L91.9981539,249.166382 C91.2153436,245.849634 90.4508109,242.536993 89.6978651,239.2335 C89.5468651,239.2265 89.3988651,239.0995 89.4398651,238.9195 L89.5338651,238.5345 L89.4768651,238.2895 C89.1458651,236.8315 88.8268651,235.3725 88.5178651,233.9125 C87.5704577,234.879885 85.7776924,234.137436 83.9924686,232.880367 L83.6103469,232.603553 C83.5467828,232.55625 83.483306,232.5084 83.4199554,232.460056 L83.0157476,232.14376 L82.6172782,231.817135 L82.2268252,231.483372 L81.8466666,231.145664 L81.4790805,230.807204 L81.1263448,230.471182 L80.7907375,230.140793 L80.4745367,229.819228 L80.0416057,229.360408 L79.7838874,229.07487 L79.5535486,228.809328 L79.3528672,228.566976 L79.1841215,228.351006 L79.0495892,228.16461 C79.0301449,228.136186 79.012221,228.109127 78.9958651,228.0835 C78.8058651,227.7875 79.1198651,227.3545 79.4608651,227.4725 C80.0848651,227.6855 80.6918651,227.9475 81.2868651,228.2385 C81.3698651,228.1105 81.5028651,228.0175 81.6798651,228.0205 C83.7044929,228.041189 85.401873,229.388172 86.7861654,230.950798 L87.1401923,231.362601 C87.1980162,231.431807 87.2552505,231.501238 87.3118966,231.570802 L87.6577417,232.0058 L87.988377,232.439342 L88.3038651,232.8665 C87.9708651,231.2595 87.6488651,229.6495 87.3398651,228.0415 C87.1808651,228.0335 87.0368651,227.8785 87.0898651,227.7095 L87.2158651,227.3855 C86.9578651,226.0225 86.7018651,224.6615 86.4528651,223.2995 C86.4358651,223.3205 86.4008651,223.3315 86.3778651,223.3495 L86.4168651,223.4065 C86.5158651,223.5615 86.3188651,223.7675 86.1598651,223.6645 C86.0608651,223.5995 85.9668651,223.5265 85.8708651,223.4575 C84.3264651,223.5862 82.8892227,222.409842 81.6611989,220.97405 L81.3315473,220.576824 C81.2774955,220.509809 81.2238951,220.442455 81.1707557,220.374859 L80.8447242,219.950131 L80.5312186,219.524443 L80.2307589,219.103124 L79.9438651,218.6915 C79.7288651,218.6285 79.5058651,218.5845 79.2768651,218.5515 C79.8518651,220.9265 83.0178651,224.1515 85.3938651,224.1285 C85.7408651,224.1235 85.7248651,224.6255 85.3898651,224.6565 C82.4418651,224.9345 78.8328651,220.8745 78.5068651,218.1555 C78.4838651,217.9725 78.6828651,217.8015 78.8548651,217.8105 C79.0278651,217.8175 79.2028651,217.8415 79.3758651,217.8695 C79.1978651,217.6105 79.0278651,217.3705 78.8728651,217.1625 C78.6608651,216.8775 79.0608651,216.5595 79.3288651,216.7025 L79.4628241,216.780982 L79.644152,216.900399 L79.9934566,217.148758 L80.4197601,217.469892 L80.9053141,217.852202 L81.2531689,218.135336 L81.7980325,218.593836 L81.9831793,218.753964 L82.3548172,219.082587 L82.7238651,219.4195 C84.0398651,220.3935 85.2108651,221.6715 86.0448651,222.8565 L86.1608651,222.8495 C86.2468651,222.8285 86.3208651,222.8465 86.3768651,222.8855 C85.7126651,219.2297 85.0797851,215.5667 84.4568411,211.89758 L83.2178651,204.5515 C83.1988651,204.5705 83.1858651,204.5895 83.1598651,204.6045 C83.2258651,204.9015 82.8278651,205.1335 82.6148651,204.8985 L82.5128651,204.7825 C80.7480079,204.944071 78.877369,202.907694 77.510834,200.781848 L77.2354956,200.341432 C77.1462472,200.194663 77.0595964,200.048159 76.9757434,199.902613 L76.7327776,199.469541 C76.6547201,199.326602 76.5796604,199.185313 76.5077986,199.046364 L76.3020068,198.637233 C76.2693737,198.570445 76.2375902,198.504416 76.2066811,198.439231 L76.0319205,198.058949 L75.8448121,197.618423 L75.6947167,197.224158 C75.6598347,197.125909 75.6291508,197.033459 75.6028651,196.9475 C75.5178651,196.6705 75.8058651,196.3915 76.0798651,196.4745 C79.1548651,197.4025 81.9038651,200.9975 82.9758651,204.0595 C83.0428651,204.0405 83.0868651,204.0595 83.1358651,204.0745 L82.7858651,201.9865 C82.3308651,199.3185 81.7348651,196.6765 81.2128651,194.0215 C81.0518651,194.0095 80.8898651,193.9235 80.7978651,193.7935 L80.750791,193.726574 L80.6728651,193.5825 C79.798811,193.578243 78.7927719,192.429967 77.9176749,191.121135 L77.659337,190.724653 L77.4104332,190.324437 L77.1395473,189.870048 L76.8853989,189.427298 L76.5407101,188.804267 L75.9481373,187.696437 L75.8438651,187.5085 C75.6628651,187.1935 76.0358651,186.7805 76.3598651,186.9905 C77.7195574,187.874808 78.7895455,189.051376 79.7365733,190.350314 L80.0366003,190.768163 L80.1930503,190.968056 L80.7798651,191.6825 C80.4448651,189.7515 80.1778651,187.8095 80.0668651,185.8435 L80.0128651,184.7175 C79.9458651,184.7075 79.8808651,184.6795 79.8348651,184.6185 C79.5478651,184.2275 79.3558651,183.7785 79.1878651,183.3175 C77.6962287,183.012773 76.7705428,180.727219 76.3207937,178.903129 L76.1956381,178.350883 L76.1008576,177.845243 L76.0464929,177.485417 L76.0108651,177.1745 C75.9758651,176.8105 76.4528651,176.6835 76.6818651,176.8945 C77.9958651,178.0975 79.2898651,180.2125 79.9068651,182.2395 C79.8053651,179.66 79.7092244,177.082031 79.448953,174.519662 L79.3261536,173.423 L79.2336776,173.8165 C79.1367401,174.209125 79.0268651,174.59725 78.8888651,174.9775 C78.7028651,175.4815 77.8308651,175.4555 77.8928651,174.8435 C78.0048651,173.7685 78.2758651,172.6415 78.4628651,171.5105 C78.2102881,171.034962 78.0728044,170.165099 78.0017963,169.286597 L77.9693651,168.808875 L77.9483657,168.343348 L77.9370451,167.903926 L77.9336498,167.504517 L77.9395815,167.010854 L77.9588651,166.6225 C78.0038651,166.2305 78.4878651,166.0585 78.7158651,166.4225 C78.9118651,166.7325 79.0648651,167.0455 79.1868651,167.3655 C79.3298651,167.3905 79.4528651,167.4855 79.4848651,167.6865 L79.4948651,167.8025 L79.5008651,167.8545 C79.6778651,169.1285 79.7128651,170.4335 79.5888651,171.7245 C79.5838651,171.8565 79.5828651,171.9925 79.5728651,172.1245 L79.5655317,172.151944 L79.5368651,172.1995 C79.9856428,174.955167 80.2257169,177.727167 80.4358802,180.514559 L80.6128651,182.9075 L80.6373095,182.864981 L80.6618651,182.8435 C80.8028651,181.9035 81.0388651,180.9765 81.6088651,180.3655 L81.7009531,179.933716 L81.7578651,179.7105 L81.9074901,179.234537 C82.1650595,178.435972 82.4785317,177.625833 83.0718651,177.0275 C83.3208651,176.7765 83.6998651,176.9725 83.7248651,177.2955 C83.9218651,180.1165 82.7358651,183.0945 81.2488651,185.4425 C81.1458651,185.6045 80.9998651,185.6705 80.8578651,185.6685 C81.0867222,187.807071 81.4375385,189.917724 81.8372645,192.018092 L82.0401536,193.062 L82.0614531,192.617649 C82.1394651,191.26944 82.3671651,189.9333 82.8378651,188.6085 C82.9608651,188.2665 83.3238651,188.2175 83.5448651,188.4195 C83.7768651,188.4045 84.0118651,188.5285 84.0908651,188.8005 C84.6598651,190.6725 84.2978651,192.7115 83.7268651,194.5615 L83.6082725,195.164759 L83.3688651,196.3415 C83.3148651,196.6095 83.0438651,196.7305 82.7978651,196.7065 L82.8118651,196.8615 C83.0708651,198.1095 83.3228651,199.3625 83.5638651,200.6155 C83.6548651,199.0795 84.0628651,197.5915 85.0428651,196.4565 C85.2608651,196.2025 85.6638651,196.3565 85.7478651,196.6435 C86.3710651,198.78214 85.9620939,201.113698 85.3672972,203.295774 L85.1742768,203.979482 L84.8745385,204.981169 L84.7748651,205.3075 C84.7188651,205.4945 84.5818651,205.5975 84.4318651,205.6315 L84.9193651,208.55025 L85.4121536,211.465967 L85.5164366,211.116304 C86.0991453,209.247701 87.1568062,207.462676 88.1958651,206.3615 C88.4048651,206.1395 88.7768651,206.2005 88.9258651,206.4575 C89.9641891,208.224118 89.4533207,210.534057 88.5381484,212.62017 L88.320299,213.097259 L88.082563,213.581383 C88.0016928,213.740699 87.9193913,213.897825 87.8362399,214.052372 L87.4582822,214.729115 L87.2057471,215.157042 L86.8348175,215.758239 L86.5978651,216.1285 C86.5128651,216.2595 86.3848651,216.3175 86.2568651,216.3385 C86.5788651,218.1555 86.9088651,219.9705 87.2448651,221.7845 L87.2448651,221.7475 C87.2408651,221.6515 87.2858651,221.5775 87.3458651,221.5165 C87.5878651,220.2995 88.0328651,219.1435 88.7668651,218.2275 C88.9748651,217.9675 89.4428651,218.1155 89.5048651,218.4265 C89.8548651,220.1495 89.8708651,221.9635 89.5268651,223.6935 L89.4090456,224.264227 C89.195504,225.249944 88.8836984,226.378833 88.2878651,227.2105 C88.6948651,229.2595 89.1138651,231.3055 89.5508651,233.3495 C89.6512936,233.023786 89.7702528,232.684112 89.9015123,232.339331 L90.1068479,231.819434 C90.177849,231.645596 90.2511464,231.471587 90.3259613,231.298515 L90.5541796,230.78321 L90.7868301,230.280159 L91.1338946,229.56308 L91.4646475,228.910913 L91.7633182,228.346063 L91.9991536,227.916 L92.0012946,163.05515 C91.435918,161.806685 90.8490965,160.568271 90.236,159.3435 C88.379,157.5265 86.296,156.0965 84.097,154.8535 C84.016,154.8705 83.929,154.8735 83.835,154.8425 C81.56,154.081711 79.2621967,153.952627 76.968544,153.927974 L74.513875,153.9175 L74.1091386,153.91345 L73.300662,153.897494 C70.6081758,153.822513 67.9415217,153.500717 65.345,152.0655 C59.707,148.9495 54.665,144.7775 50.105,140.2355 C49.913,140.3785 49.721,140.5115 49.528,140.6655 C49.091,141.0155 48.587,140.3115 49.021,139.9645 C49.18,139.8365 49.339,139.7295 49.498,139.6095 C49.38525,139.4335 49.5539931,139.195319 49.7377211,139.287788 L49.788,139.3215 L49.834,139.3615 C55.9296203,134.962011 61.9762374,136.132473 67.5867986,139.469494 L68.1463869,139.810292 C68.2394045,139.868254 68.3322975,139.926785 68.425064,139.985871 L68.9801304,140.346917 L69.5320748,140.720515 L70.0808111,141.10591 L70.6262533,141.502346 L71.1683154,141.909065 L71.7069113,142.325312 C71.7963837,142.395439 71.8857081,142.465931 71.9748827,142.536772 L72.5081182,142.965893 C72.5966864,143.038071 72.6851012,143.110566 72.7733609,143.183365 L73.4450674,143.74555 L74.1105495,144.317956 L74.7696294,144.899019 L75.422129,145.487172 L76.0678705,146.080852 L76.7066758,146.678494 L77.6514895,147.578964 L78.8853039,148.778855 L82.3953699,152.254573 L83.4968545,153.330105 L84.299,154.0965 C84.353,154.1475 84.389,154.2045 84.414,154.2605 C86.249,155.3225 87.984,156.5195 89.524,157.9765 C87.961,154.9775 86.235,152.0635 84.262,149.3035 C80.4131333,143.917167 76.05276,140.091642 70.9836382,136.302371 L69.8011698,135.427874 C69.40276,135.136127 69.0000667,134.8439 68.593,134.5505 L67.955,134.0655 C66.0715116,133.07357 64.0343786,132.393773 61.9647154,131.783688 L60.5281629,131.369479 L59.0901468,130.959669 L58.1350665,130.680079 L57.2647514,130.414003 C54.0852762,129.416019 51.0479806,128.144516 48.605,125.6945 C46.5504688,123.634881 44.9394934,121.247019 43.4309385,118.787224 L42.7407127,117.647759 L41.5585599,115.667924 L41.246153,115.148257 L40.6149077,114.114199 C38.9163978,111.368911 37.076343,108.736278 34.614,106.5775 C34.292,106.2955 34.549,105.8535 34.935,105.8755 C42.47,106.2845 49.881,109.1595 55.571,114.1835 C57.942,116.2785 60.096,118.4275 61.555,121.2725 C61.9355556,122.013981 62.2965638,122.774359 62.6536854,123.541 L63.5939881,125.562103 L64.1199893,126.654502 C65.2636136,128.972164 66.5678519,131.189347 68.476,132.9485 C68.614,133.0755 68.63,133.2405 68.577,133.3765 C69.414,133.97575 70.2583125,134.566562 71.1192187,135.139656 L71.986,135.7065 C74.528,137.3395 76.836,139.2525 78.958,141.3605 C78.488,139.9415 78.087,138.4815 77.764,136.9915 C77.432,137.5015 76.705,136.8935 77.03,136.3825 C77.19,136.1295 77.337,135.8735 77.488,135.6165 C77.392,135.0885 77.296,134.5565 77.22,134.0225 C73.805,129.2415 72.82,123.8135 73.562,118.5055 C70.414,118.2605 66.27,117.0405 63.948,114.6535 C63.8373333,114.672167 63.72,114.683722 63.5971852,114.689056 L63.409,114.6925 L63.351,114.7025 C62.892,114.7905 62.64,114.4105 62.623,114.0255 C58.991,114.3745 59.551,109.1915 63.344,109.8945 C65.737,110.3375 66.415,113.4845 64.634,114.4305 C66.11752,115.83082 68.17448,116.584791 70.238649,117.161389 L71.0119443,117.370215 L72.9045939,117.855595 C73.149856,117.91949 73.39136,117.98382 73.628,118.0495 C74.053,115.3625 74.912,112.7125 76.131,110.1985 C73.457,105.7305 70.067,101.7665 66.573,97.8855 C65.3476667,98.1495 64.3654444,97.7632778 63.3611481,97.2622407 L62.4887318,96.8171501 C62.2661837,96.7050918 62.0391429,96.5947857 61.805,96.4915 L60.6574352,95.9938009 L58.35925,95.019125 C57.21225,94.53 56.0715,94.0295 54.951,93.4785 C54.841,93.6905 54.595,93.8405 54.335,93.7155 L54.1060204,93.600981 C53.945,93.5152959 53.8421429,93.4419286 53.675,93.2905 C51.091,94.0825 50.449,89.9725 52.713,88.9235 C55.11,87.8125 56.666,91.3005 55.191,92.7955 C56.0595,93.23 56.9455,93.62525 57.837625,94.008875 L59.6266713,94.7688102 C59.9250833,94.8956111 60.2233333,95.0231667 60.521,95.1525 C60.8434118,95.2922647 61.1655121,95.4509014 61.4885376,95.6180728 L62.7885042,96.3077736 C63.8808062,96.8796176 65.0017059,97.3931471 66.197,97.4655 L62.51,93.3945 C62.432,93.6105 62.091,93.6885 61.994,93.4125 C61.888,93.1055 61.797,92.7965 61.698,92.4865 C59.688,90.2265 57.749,87.9235 55.976,85.5075 C54.6107273,86.1675 53.1169256,85.9364256 51.5926146,85.4934354 L51.0835154,85.3388549 L50.572963,85.1741667 L49.7295203,84.8952017 C49.0737644,84.6799556 48.4197,84.4763333 47.775,84.3375 C47.845,84.6335 47.805,84.9285 47.548,85.1695 C47.127,85.5705 46.706,85.6585 46.33,85.5465 C46.119,85.5595 45.892,85.5195 45.646,85.4065 C45.278,85.2385 45.15,84.7195 45.193,84.1985 C45.155,84.0765 45.12,83.9555 45.098,83.8265 C45.063,83.6165 45.232,83.4485 45.42,83.3965 C45.563,83.1315 45.761,82.9355 46.013,82.9125 C46.316,82.8855 46.695,83.0505 47.029,83.3045 C47.077,83.1795 47.107,83.0525 47.129,82.9235 C46.959,82.9055 46.806,82.7195 46.905,82.5555 C47.039,82.3675 47.129,82.1585 47.176,81.9295 C47.312,81.5305 48.016,81.5395 48.115,81.9635 C48.206,82.3585 48.169,82.9565 48.014,83.5545 C48.6296,83.69922 49.2453152,83.897796 49.8598185,84.1067377 L50.7804986,84.4224882 C52.4150576,84.9783144 54.03628,85.45322 55.619,85.0225 C53.819,82.5175 52.231,79.8705 50.953,77.0135 C50.917,77.0255 50.886,77.0445 50.845,77.0525 C50.331,77.1635 49.852,76.8595 49.471,76.4865 C49.42,76.5085 49.363,76.5155 49.304,76.5025 C48.208,76.2535 47.671,75.0955 47.914,74.0995 L47.791,73.8575 C47.663,73.5785 48.016,73.3285 48.246,73.4295 L48.3645185,73.2655 L48.433,73.1895 C49.225,72.4215 50.667,71.9625 51.557,72.8565 C52.093,73.3955 52.194,74.1865 52.088,74.9115 L52.0389932,75.2271941 C51.9380355,75.8251095 51.7622308,76.5032692 51.285,76.8485 C52.188,78.6975 53.235,80.4385 54.377,82.1095 C54.2456667,81.2168333 54.253,80.2357222 54.2893704,79.2790556 L54.352,77.8765 C54.228,77.9615 54.05,77.9675 53.94,77.8215 C53.31,76.9905 52.884,75.1085 54.306,74.7555 C55.57,74.4415 55.7,75.9805 55.4679926,76.8085 C55.402,77.0465 55.221,77.2175 55.01,77.2795 L54.9789975,77.5005134 L54.9249052,77.9624154 L54.8826006,78.4464242 C54.7030204,80.912949 55.0211429,84.0107857 56.672,84.7745 C56.879,84.8715 56.807,85.1165 56.64,85.1745 C58.051,86.9685 59.555,88.6955 61.098,90.3895 C61.03,90.1175 60.951,89.8505 60.891,89.5785 C60.8232857,89.2731429 60.7647092,88.927148 60.7078021,88.5579807 L60.534621,87.3984271 C60.3718571,86.3369694 60.1678571,85.2349286 59.781,84.4235 C59.727,84.3975 59.675,84.3625 59.632,84.3115 C59.353,83.9655 59.064,83.6315 58.762,83.3055 C58.4558667,82.9611 58.7464444,82.48342 59.1174548,82.3700387 L59.198,82.3515 C59.989,82.2315 60.082,81.3105 59.756,80.7685 C58.989,81.2725 58.423,81.2775 57.605,80.6785 C57.224,80.3995 57.319,79.8665 57.635,79.5975 C60.288,77.3385 62.693,82.2165 60.135,83.3355 L60.214,83.4855 C60.234,83.5105 60.249,83.5385 60.263,83.5695 L60.283,83.5955 L60.428,83.8855 C60.508,84.0445 60.479,84.1815 60.396,84.2855 C60.718,86.6215 61.236,88.9975 61.913,91.2795 C62.362,91.7675 62.814,92.2535 63.267,92.7385 C63.291,92.6985 63.323,92.6615 63.38,92.6475 C63.8821053,92.5167632 64.0818504,91.8012507 64.1870792,91.1290285 L64.2327794,90.7994326 L64.3079136,90.1745882 L64.398656,89.603692 C64.51456,88.90942 64.6704,88.2099 65.072,87.6275 C65.189,87.4585 65.464,87.4455 65.612,87.5725 C65.76,87.6985 65.896,87.8255 66.026,87.9515 C66.134,87.9935 66.238,88.0595 66.327,88.1845 C66.682,88.5725 66.919,88.9265 67.016,89.3945 L67.046,89.4725 C67.075,89.5505 67.075,89.6295 67.064,89.7055 L67.067,89.7245 C67.074,89.8395 67.009,89.9495 66.914,90.0135 C66.734,90.2095 66.438,90.2925 66.216,90.0675 C66.111,89.9615 66.021,89.8415 65.934,89.7195 C65.7165,89.5653333 65.5337222,89.3701944 65.3700417,89.1109352 L65.27,88.9385 C65.1806667,89.2175 65.1186667,89.5107222 65.0668889,89.8077222 L64.9251111,90.6996111 C64.8766667,90.9937222 64.8213333,91.2811667 64.742,91.5515 L64.7032646,91.6813231 L64.617024,91.942484 C64.43024,92.46226 64.1472,92.9485 63.58,93.0725 L65.1236427,94.7277669 L66.1479437,95.8343868 C70.0611288,100.085569 73.7939643,104.461964 76.402,109.6575 C77.289,107.9195 78.354,106.2605 79.546,104.6945 C78.876,103.0325 78.168,101.3585 77.457,99.6735 L77.398,100.1555 C77.365,100.4635 76.882,100.4355 76.86,100.1315 C76.825,99.6325 76.812,99.1335 76.814,98.6345 C71.4012803,95.4297908 68.9126385,90.5183342 67.6398598,84.9395109 L67.4699818,84.1568439 C67.2535408,83.1077917 67.0764347,82.0373131 66.9276632,80.9521014 L66.8212254,80.1355347 L66.7716687,79.7253756 L66.6574249,78.695136 L66.5540197,77.6446321 C66.4754733,76.7992634 66.4069889,75.9492317 66.3436815,75.0975094 L66.2178771,73.325021 L66.060873,71.027312 C66.0076175,70.26315 65.9522562,69.50145 65.8912344,68.744375 L65.8150635,67.8382434 C65.5109154,64.3743104 65.0569,61.02655 64.107,58.0055 C64.084,57.9285 64.084,57.8565 64.099,57.7885 L63.819,57.6515 C63.517,57.5185 63.666,56.9865 63.993,57.0885 C64.191,57.1495 64.382,57.2225 64.574,57.2945 C64.6573333,57.257 64.7642778,57.2611667 64.8161296,57.3353565 L64.842,57.3965 C65.061,57.4855 65.277,57.5785 65.488,57.6775 L65.642,57.7075 C65.509,57.4615 65.379,57.2145 65.237,56.9715 C65.1,56.7375 65.389,56.3955 65.612,56.6195 C66.04,57.0515 66.417,57.5345 66.771,58.0485 C68.0111938,58.4900538 69.1687583,59.1420829 70.2422244,59.9476175 C70.2416575,59.9086744 70.2562207,59.86966 70.2876607,59.8375 C70.4096607,59.7125 70.5416607,59.5955 70.6716607,59.4755 C70.6256607,59.4125 70.5766607,59.3525 70.5366607,59.2865 C70.4286607,59.1085 70.6156607,58.8585 70.8166607,58.9685 L71.0806607,59.1085 C74.5166607,56.2225 80.0746607,55.0665 84.5526607,56.2455 L84.6546607,56.2275 C83.3086607,55.4385 81.9416607,54.7195 80.5506607,54.0695 L80.5376607,54.0665 C80.5126607,54.0755 80.4856607,54.0895 80.4546607,54.0795 C80.2966607,54.0365 80.1266607,54.0015 79.9616607,53.9645 C78.4890357,53.6928125 76.9224302,53.7040234 75.3468406,53.7636602 L73.3228228,53.8485625 C71.9790982,53.8983438 70.6555357,53.909875 69.4056607,53.7355 C66.7056607,53.3615 63.4416607,51.4665 63.7936607,48.3205 C63.7956607,48.3035 63.8086607,48.2935 63.8146607,48.2785 L63.7286607,48.2525 C63.4956607,48.1835 63.5616607,47.8595 63.8016607,47.8855 C74.0274308,48.9790347 83.9108212,53.8378252 92.0002034,60.6456191 L92.0012946,52.7946439 L91.7356607,52.3625 C89.2966607,49.2795 86.4446607,46.8095 83.3326607,44.6765 C82.0574226,44.3237381 80.7207242,44.061534 79.3526823,43.8394949 L78.3212445,43.6797092 L77.8020003,43.6039881 L76.7582258,43.457937 L74.6594148,43.1708637 L73.6100251,43.0203928 L72.6478544,42.8724246 C68.968467,42.2827942 65.4079702,41.4083171 62.5236607,39.3165 L61.9138953,38.8711932 L61.2185831,38.3506178 L60.6554766,37.9151396 L60.2659084,37.6050641 L59.8685287,37.2802374 L59.4663542,36.941563 L59.2644115,36.7673153 L58.860701,36.4095635 C58.726421,36.2883312 58.5925988,36.1651674 58.4597373,36.0402228 L58.0645372,35.6601967 L57.6781174,35.2703889 C55.7094929,33.2326684 54.2132396,30.8394474 55.0616607,28.6515 C54.8746607,28.5135 54.6896607,28.3755 54.5046607,28.1975 C54.2166607,27.9235 54.6056607,27.4695 54.9126607,27.7285 C55.0176607,27.8175 55.1276607,27.8955 55.2366607,27.9755 C55.3226607,27.9495 55.4166607,27.9585 55.4766607,28.0665 L55.5466607,28.1795 C56.6766199,28.8755 58.0661509,29.1663088 59.4856547,29.3694171 L60.1968414,29.4651327 L61.4342554,29.6239898 C62.2501913,29.7344796 63.0405178,29.8646429 63.7596607,30.0775 C66.4386607,30.8685 69.0236607,31.9075 71.5326607,33.1245 C76.3826607,35.4745 80.1496607,39.1875 83.1526607,43.5705 C85.4186607,45.0745 87.5616607,46.7775 89.4326607,48.7255 C88.7786607,47.7185 88.1346607,46.7095 87.4586607,45.7155 C83.0916607,39.3005 78.0246607,33.2265 72.3876607,27.8955 C71.8696607,27.4035 71.3356607,26.9325 70.8026607,26.4615 C69.0310945,25.5063603 67.1822903,24.7381497 65.3182656,24.0108975 L62.6897679,22.9987843 C60.2543077,22.0571194 57.842543,21.0684412 55.5926607,19.7075 C52.3292607,17.7335 50.0637807,14.49266 48.1274847,11.078156 L47.6498817,10.2215446 L47.1836727,9.361493 L46.5006436,8.0732683 L45.6081451,6.37902148 L45.1644743,5.55046114 C44.9424882,5.14022375 44.7199857,4.736525 44.4956607,4.3415 C44.3716607,4.1225 44.4786607,3.7345 44.7886607,3.7555 C51.6506119,4.21702439 56.9983305,7.63503673 61.3980341,12.2733679 L61.9790931,12.8988911 C62.4587102,13.4259327 62.9269341,13.9670873 63.3845415,14.5199734 L63.9286242,15.1889154 L64.4628133,15.8682051 C64.7274841,16.2102844 64.9885568,16.5559012 65.2461989,16.904541 L65.7569589,17.6056988 C65.8413398,17.7231794 65.9253519,17.8409578 66.0090016,17.9590149 L66.5065988,18.67055 L66.752228,19.0285403 L67.2373336,19.7483951 L67.7144843,20.4726531 L68.1839784,21.2003998 L68.646114,21.9307207 L69.1011894,22.6627013 L69.7712172,23.7617836 L70.6426607,25.2245 C71.4346607,25.8735 72.2156607,26.5315 72.9816607,27.2125 C75.2686607,29.2475 77.4046607,31.4845 79.4366607,33.8235 L79.4106607,33.7595 C79.2096607,33.3615 79.0246607,32.9505 78.8436607,32.5325 C78.7866607,32.5345 78.7276607,32.5195 78.6776607,32.4625 C71.3806607,24.0705 68.5366607,10.1615 76.1306607,1.2545 L76.1276607,1.2435 C76.0746607,1.0795 76.2116607,0.9905 76.3396607,1.0095 L76.5346607,0.7825 C76.6726607,0.6325 76.9356607,0.5915 77.0906607,0.7445 C79.7213917,3.34618276 80.8986302,7.06960668 81.6186174,10.7499423 L81.7714927,11.566612 L81.9165499,12.4079227 L82.0507644,13.2415087 L82.2376607,14.4705 C82.6886607,17.4915 82.6936607,20.3945 82.1166607,23.3925 C81.9269107,24.3760833 81.6825426,25.0571667 81.1509396,25.8355122 L80.9986607,26.0505 C79.3391779,28.3203276 79.2113539,29.9257675 79.5414464,32.0475519 L79.6289108,32.5672986 L79.7306607,33.1105 C79.9706607,33.7595 80.2176607,34.4035 80.4786607,35.0275 C82.3116607,37.2125 84.0506607,39.4775 85.7246607,41.7535 C84.5436607,39.2315 83.7446607,36.3345 84.4226607,34.0765 C83.9956607,33.6405 83.7496607,33.0155 83.7146607,32.3835 C83.6636607,31.4315 84.0686607,30.2495 84.9756607,29.8045 C86.1986607,29.2045 87.6636607,30.2535 87.9336607,31.4965 C87.9726607,31.6785 87.7976607,31.8995 87.6006607,31.7845 C87.4602607,31.7047 87.3101407,31.58638 87.1522447,31.456108 L86.8266607,31.1875 C86.8376607,31.2115 86.8436607,31.2355 86.8516607,31.2595 C87.0196607,31.4355 87.1856607,31.6275 87.3216607,31.8415 C87.7756607,32.3645 87.8986607,33.1335 87.6516607,33.7765 C87.3416607,34.5965 86.3166607,34.7405 85.5656607,34.6495 C85.4276607,34.6345 85.2996607,34.6015 85.1756607,34.5595 C85.0826607,37.5095 85.7076607,40.6795 86.9426607,43.4245 L87.0866607,43.6205 C88.8156994,46.0222428 90.4439239,48.4946924 92.0002957,51.0135088 L91.999687,42.4824484 C91.259298,39.5597627 90.6839995,36.6061034 90.9116607,33.4505 L90.973369,32.4681909 L91.0708927,30.76042 L91.1336779,29.8287972 L91.1844237,29.187605 L91.2779068,28.2051214 L91.3541567,27.54186 C91.497441,26.3868143 91.6996613,25.2218199 91.9988397,24.1362052 L91.9997614,261.810316 Z M75.1918651,252.2025 C77.1608651,253.2035 79.6738651,253.2835 81.8708651,252.8465 L81.8078651,252.7875 C81.5188651,252.6795 81.2238651,252.5715 80.9158651,252.4685 C80.8828651,252.5385 80.8248651,252.5955 80.7428651,252.5935 C80.226754,252.584611 79.7077879,252.503963 79.188839,252.405032 L78.2553699,252.218762 L77.738162,252.123725 C76.8774703,251.9796 76.0242725,251.923333 75.1918651,252.2025 Z M78.1648651,246.1275 C78.3648651,246.7575 78.6618651,247.4425 79.0288651,248.1405 C79.0408651,248.1435 79.0558651,248.1345 79.0708651,248.1425 C79.9498651,248.5325 80.6843026,249.212187 81.3615057,249.914516 L82.0228651,250.6145 L82.3629067,250.966093 L83.0964901,251.7 C83.4708651,252.07725 83.8463651,252.47 84.1768651,252.8785 C83.7608651,251.3705 82.9348651,249.9845 81.9138651,248.7805 C81.3875794,248.157357 80.8407222,247.536418 80.2235444,247.001439 L79.6331211,246.5203 L79.3067169,246.270981 L79.0287906,246.074605 L78.8414901,245.95375 L78.6611362,245.849989 L78.5161196,245.77988 C78.2169888,245.651837 78.0270362,245.690729 78.1648651,246.1275 Z M79.4758651,248.9245 C79.7828651,249.4405 80.1128651,249.9575 80.4868651,250.4515 C80.8698651,250.7005 81.2448651,250.9595 81.6208651,251.2135 L81.0492033,250.534573 C80.5622936,249.96399 80.0458651,249.3945 79.4758651,248.9245 Z M64.4968651,247.1725 C64.1128651,247.3345 63.7528651,247.5275 63.4188651,247.7445 C64.7888651,248.1735 66.2568651,248.1805 67.6718651,247.8905 C66.5538651,247.8215 65.4528651,247.5605 64.4968651,247.1725 Z M68.5227572,246.480042 L68.1247401,246.467625 L68.0728651,246.4675 C67.2148651,246.4655 66.3488651,246.5895 65.5298651,246.8145 C67.1038651,247.2845 68.9998651,247.3975 70.5018651,246.8275 C69.8821508,246.634643 69.213212,246.516724 68.5227572,246.480042 Z M67.5148651,241.8355 C68.7418651,243.8995 71.3278651,245.7435 73.6198651,246.3955 C71.6291317,245.474233 69.8674873,244.028691 68.2509575,242.52952 L67.5148651,241.8355 Z M69.2958651,242.5415 C70.1678651,243.2975 71.0878651,244.0105 72.0588651,244.6335 C71.1878651,243.8595 70.2918651,243.1245 69.2958651,242.5415 Z M91.9991536,234.118 L91.8310675,234.484891 L91.5769636,235.01318 L91.4488651,235.2735 C91.1908651,236.1355 90.8978651,236.9775 90.5488651,237.7955 C90.7068651,238.4975 90.8568651,239.1995 91.0198651,239.8975 C91.3416453,241.260279 91.6677884,242.621986 91.9980256,243.982667 L91.9991536,234.118 Z M56.6648651,241.1155 C56.2198651,241.1085 55.7778651,241.1455 55.3398651,241.2045 C57.3938651,242.6715 60.8038651,244.1205 63.1508651,243.0425 L63.0368651,242.9985 C60.9088651,243.4915 58.3418651,242.6205 56.6648651,241.1155 Z M58.0708651,241.2435 C59.0798651,241.8745 60.2768651,242.2875 61.4308651,242.3665 C60.8608651,242.1425 60.2888651,241.9185 59.7148651,241.6965 C59.6598651,241.6765 59.6298651,241.6345 59.6148651,241.5885 C59.1078651,241.4405 58.5908651,241.3235 58.0708651,241.2435 Z M91.1478651,231.4675 L90.9033957,232.013127 L90.6708038,232.552474 L90.4555998,233.075955 L90.2632936,233.573984 C90.0842732,234.056092 89.9478651,234.485643 89.8788651,234.8195 L89.9548651,235.1605 C90.2998651,233.9115 90.7008651,232.6795 91.1478651,231.4675 Z M83.0118651,229.2235 C84.5298651,230.2185 85.8878651,231.4685 86.9338651,232.9235 C87.0738651,233.1185 86.9878651,233.3795 86.8168651,233.5245 C87.2098651,233.6495 87.5568651,233.6845 87.8358651,233.6015 C87.6123651,233.3843 87.3922401,233.150157 87.1727766,232.906582 L86.7339276,232.409078 L86.2920186,231.899769 L85.8747179,231.427939 C85.0307438,230.492735 84.1228079,229.629657 83.0118651,229.2235 Z M80.7858651,228.9385 C81.2318651,229.4135 81.7788651,229.9505 82.3748651,230.4935 C82.1058651,230.1375 81.8558651,229.7725 81.6298651,229.3885 C81.3518651,229.2305 81.0728651,229.0805 80.7858651,228.9385 Z M88.8198651,219.7675 C88.4558651,220.4935 88.2218651,221.3155 88.0968651,222.1695 C88.3518651,222.9635 88.4468651,223.7675 88.3848651,224.5775 C88.5078651,224.2205 88.6098651,223.8535 88.6748651,223.4635 C88.8808651,222.2335 88.9448651,220.9985 88.8198651,219.7675 Z M81.0048651,219.1355 C81.9658651,220.4635 83.1668651,221.8635 84.4008651,222.5135 C84.3168651,222.1955 84.0308651,221.8035 83.6828651,221.4165 C83.4548651,221.1785 83.2248651,220.9425 82.9908651,220.7135 L82.6916428,220.431611 L82.1958651,219.9785 C81.8208651,219.6625 81.4288651,219.3735 81.0048651,219.1355 Z M65.5168651,216.7965 C65.8248651,218.2845 66.1948651,219.7565 66.7948651,221.1255 L66.9018651,221.1565 L66.8438651,220.6345 C66.4728651,219.3295 66.0408651,218.0465 65.5168651,216.7965 Z M55.3428651,217.8025 C56.8008651,219.0355 59.3198651,219.7115 61.2328651,219.2865 C60.4344651,219.2725 59.6576651,219.03466 58.8828171,218.753332 L57.7195531,218.321268 C56.9417451,218.04154 56.1560651,217.8085 55.3428651,217.8025 Z M52.6148651,217.0705 C53.0808651,217.3965 53.5968651,217.7165 54.1498651,218.0185 C54.0448651,217.9025 53.9398651,217.7875 53.8478651,217.6665 C53.6518651,217.4045 53.8658651,216.9945 54.1568651,216.9285 L54.3546058,216.894204 L54.7498651,216.8545 C53.9948651,216.7965 53.2728651,216.8515 52.6148651,217.0705 Z M88.3948651,207.5625 C87.9768651,208.0735 87.6108651,208.6275 87.2988651,209.2185 C87.3798651,209.2585 87.4458651,209.3255 87.4288651,209.4355 C87.359942,209.965038 87.2356343,210.48937 87.0982688,211.011815 L86.887718,211.794483 C86.6429952,212.706914 86.4230958,213.618654 86.4548651,214.5475 L86.7170597,214.101699 L86.9796872,213.63401 C88.0245794,211.724051 88.9631508,209.371071 88.3948651,207.5625 Z M77.6538651,205.9245 C79.6662789,206.598293 81.1459935,208.386474 82.3770714,210.285639 L82.7392198,210.857715 L83.0881543,211.430429 L83.9138651,212.8255 L84.1982354,212.954241 L84.3388651,213.0095 L84.3388651,213.0095 C84.5978651,213.0965 84.5738651,213.4715 84.3118651,213.5105 C84.4908651,213.9215 83.9518651,214.2555 83.6118651,213.9715 C83.3278651,213.7355 83.0738651,213.4755 82.8368651,213.1985 C80.2408651,212.1495 77.7648651,208.7245 77.1068651,206.4655 C77.0168651,206.1565 77.3378651,205.8185 77.6538651,205.9245 Z M78.3378651,207.2715 C78.9978651,208.7605 80.1968651,210.2475 81.5628651,211.3745 L80.8866932,210.230391 C80.2044276,209.093625 79.4666151,208.011 78.3378651,207.2715 Z M55.9538651,205.7795 C56.1578651,207.6945 56.6018651,209.6505 57.6318651,211.2065 C57.4876151,210.75375 57.3570526,210.297187 57.2307401,209.839766 L56.8551151,208.467875 C56.6006151,207.5555 56.3253651,206.6515 55.9538651,205.7795 Z M45.6708651,208.5025 C47.2868651,209.7375 49.3248651,210.5735 51.3738651,210.7865 C51.5518651,210.8015 51.7308651,210.8155 51.9118651,210.8275 C52.0318651,210.8355 52.1548651,210.8285 52.2778651,210.8305 L51.7752984,210.624845 L50.2758459,209.99464 C48.777942,209.367778 47.2742497,208.780808 45.6708651,208.5025 Z M43.9468651,208.1965 C43.6668651,208.2875 43.3988651,208.4175 43.1378651,208.5675 C44.0188651,209.0605 44.9428651,209.4565 45.8988651,209.7635 C45.1898651,209.3045 44.5258651,208.7895 43.9518651,208.2065 L43.9468651,208.1965 Z M54.4648651,202.5675 C54.1748651,204.2415 54.5648651,206.0315 55.1558651,207.6005 L55.2478651,207.8355 C54.9468651,206.3925 54.8238651,204.9005 54.7648651,203.4915 C54.7558651,203.2405 54.8928651,203.0925 55.0708651,203.0335 C54.8768651,202.8595 54.6728651,202.7065 54.4648651,202.5675 Z M76.6568651,197.5595 C77.5498651,199.6765 79.8238651,203.4835 81.9248651,204.0665 C81.595442,203.626885 81.2978236,203.165672 81.0127437,202.697817 L80.1758528,201.289288 C79.2821905,199.797512 78.3196343,198.390885 76.6568651,197.5595 Z M85.1168651,197.7735 C84.9118651,198.1175 84.7588651,198.4945 84.6318651,198.8865 C84.7528651,198.9045 84.8608651,198.9925 84.8588651,199.1555 C84.8518651,200.0475 84.8298651,200.9325 84.8128651,201.8225 C85.1248651,200.4725 85.2908651,199.0945 85.1168651,197.7735 Z M46.0678651,197.5815 C46.4018651,198.8655 46.8548651,200.1265 47.4658651,201.2725 C46.9858651,200.0515 46.5488651,198.8065 46.0678651,197.5815 Z M37.7888651,199.4775 C38.4118651,199.9725 39.1568651,200.4475 39.9478651,200.8025 L40.2088651,200.8765 C40.9848651,201.0645 41.7438651,201.1635 42.4988651,201.2345 C42.2919317,201.145833 42.0853717,201.050411 41.8789077,200.9515 L40.6390571,200.342292 C39.7067051,199.89318 38.7650651,199.5057 37.7888651,199.4775 Z M44.4808651,194.5875 C44.459956,195.805682 44.7382204,197.062707 45.2127283,198.282692 L45.3601536,198.645967 L45.1926785,198.068899 C44.8719671,196.908643 44.6437222,195.732643 44.4808651,194.5875 Z M28.8398651,191.7605 C29.9958651,192.8305 31.8178651,193.3385 33.3588651,193.0115 C33.0550651,192.9293 32.7548251,192.83658 32.4563131,192.739508 L31.1184901,192.294125 C30.3748651,192.0535 29.6248651,191.8435 28.8398651,191.7605 Z M77.5258651,188.9885 L77.9098222,189.646082 L78.1820258,190.095032 L78.3217126,190.319208 L78.6061145,190.761185 C78.6539308,190.833754 78.7019075,190.905648 78.7499733,190.976674 L79.0388651,191.390875 C79.5683651,192.1255 80.0913651,192.7085 80.5128651,192.8835 L80.4211883,192.73921 L80.209827,192.426928 L79.9737391,192.096746 L79.6063651,191.603875 L78.9098651,190.6955 C78.4768651,190.0935 78.0248651,189.5185 77.5258651,188.9885 Z M36.0658651,187.6565 L36.4207401,188.30525 L36.7658651,188.9585 C37.2668651,189.9095 37.7618651,190.8615 38.2728651,191.8065 C37.7828651,190.3115 37.0388651,188.8795 36.0658651,187.6565 Z M19.6698651,184.9015 C20.5548651,185.3465 21.4718651,185.5855 22.4078651,185.6965 C22.0698651,185.4415 21.7778651,185.1375 21.5618651,184.7685 C20.9118651,184.7175 20.2748651,184.7495 19.6698651,184.9015 Z M77.0178651,178.4855 C77.3318651,179.8935 77.9598651,181.7925 78.8968651,182.4605 C78.7848651,182.1005 78.6698651,181.7445 78.5368651,181.4045 C78.1298651,180.3645 77.6648651,179.3675 77.0178651,178.4855 Z M82.9208651,178.5565 C82.7048651,178.9895 82.5398651,179.4605 82.3998651,179.9355 C82.5148651,179.9755 82.6058651,180.0675 82.6288651,180.1925 C82.7708651,179.6485 82.8678651,179.1025 82.9208651,178.5565 Z M14.4968651,178.6845 C15.0798651,178.9655 15.6998651,179.1875 16.3158651,179.3845 C16.2048651,179.3075 16.0938651,179.2335 15.9918651,179.1445 C15.7888651,178.9755 15.9678651,178.6695 16.1998651,178.6745 C15.6288651,178.5905 15.0518651,178.5845 14.4968651,178.6845 Z M17.4458651,172.6345 C17.5518651,174.1575 18.4058651,176.0545 19.5678651,177.5995 C19.6198651,177.6445 19.6738651,177.6885 19.7288651,177.7305 L19.7058651,177.6975 C19.6618651,177.6125 19.6778651,177.5325 19.7178651,177.4635 L18.8463651,176.1185 C18.5566151,175.66975 18.2708651,175.2185 17.9988651,174.7585 C17.8488651,174.5005 18.1928651,174.2935 18.3808651,174.4675 L18.3938651,174.4545 C18.9688651,175.0865 19.4978651,175.7715 19.9948651,176.4835 L19.9978651,176.4835 C19.9048651,176.2355 19.8048651,175.9875 19.6868651,175.7485 C19.6138651,175.5935 19.8398651,175.4585 19.9188651,175.6135 L20.0511131,175.89082 L20.2949211,176.45482 C20.3778651,176.64202 20.4666651,176.8265 20.5738651,177.0025 C20.6228651,177.0885 20.5808651,177.1835 20.5078651,177.2335 C20.7898651,177.6605 21.0678651,178.0925 21.3348651,178.5255 C21.4378651,178.6935 21.3938651,178.8645 21.2878651,178.9845 L21.5018651,179.1565 C22.1307072,177.969789 20.4304918,175.522744 18.8320296,173.875485 L18.5035625,173.54676 L18.1827833,173.244914 C17.9199994,173.005702 17.6702072,172.798711 17.4458651,172.6345 Z M7.49386507,173.7135 C8.31886507,174.2225 9.26686507,174.5635 10.1998651,174.7895 L10.7744165,174.924553 C11.4691737,175.080253 12.2375317,175.213167 12.9538651,175.1525 L11.8542384,174.477566 L11.4854132,174.257582 L11.1320242,174.058454 C9.9517283,173.41784 8.74728199,173.035444 7.49386507,173.7135 Z M10.5928651,169.2255 C11.0208651,170.1195 11.5688651,170.9565 12.1938651,171.7325 L11.8428807,171.069797 C11.4861151,170.408062 11.1013651,169.76025 10.5928651,169.2255 Z M1.26586507,165.8845 C0.771865067,165.898065 0.787740303,166.052517 0.970407025,166.255223 L1.06530864,166.351868 L1.2356762,166.505258 L1.47577548,166.714873 L1.53186507,166.7665 C1.94146507,167.1481 2.37090507,167.50922 2.82479307,167.836548 L3.85820857,168.552972 L4.20667683,168.78551 C4.74656038,169.134086 5.34555257,169.458437 5.75786507,169.4455 L4.99686507,168.8845 C4.76886507,168.7165 4.86386507,168.4225 5.07586507,168.3675 L4.59539276,167.841462 L4.26896192,167.498171 C3.39005554,166.598731 2.43767459,165.853262 1.26586507,165.8845 Z M83.68,121.4165 L82.9479342,124.068864 L82.5530549,125.462294 C81.4828607,129.169872 80.2493865,132.805147 78.233,136.2145 C78.615,138.1825 79.121,140.1425 79.714,142.1165 C84.8868386,147.489782 88.8542305,154.093242 91.9995475,160.943056 L91.9999599,142.105132 C90.9348997,141.352682 89.959556,140.481292 89.0037609,139.576456 L88.287,138.8905 L87.097384,137.7273 C86.699768,137.33994 86.298536,136.95626 85.886072,136.58618 L85.2377894,136.02406 L84.7613994,135.568544 L84.6103291,135.432442 L84.4706641,135.315088 C84.297424,135.177255 84.1868571,135.126262 84.268,135.3095 C84.44,135.4915 84.598,135.6845 84.714,135.8995 C84.8,135.9715 84.875,136.0565 84.967,136.1245 C85.132,136.2615 85.042,136.5275 84.851,136.5635 C84.722,136.8635 84.261,136.9705 84.131,136.5735 C84.082,136.4805 84.01,136.3875 83.928,136.2985 C83.6446667,136.166 83.3981389,135.991139 83.1490648,135.740352 L82.898,135.4725 C82.53,135.0355 83.154,134.3985 83.592,134.6685 L83.588,134.5875 C83.61,134.3885 83.846,134.3415 83.987,134.4385 C85.3890588,135.400382 86.6461522,136.554535 87.88653,137.728514 L88.9486086,138.735616 C89.9317762,139.663291 90.9274449,140.572495 91.9993404,141.377545 L91.9997386,138.097447 C89.75441,132.290024 86.7776031,126.831299 83.68,121.4165 Z M51.33,140.6615 L54.6765548,143.622174 L55.3686231,144.226156 L56.4212708,145.129103 L57.1328327,145.725807 L57.8523122,146.315705 C58.0934659,146.510957 58.3359506,146.704703 58.5797778,146.896574 L59.3152983,147.466187 C63.6294611,150.751781 68.3582586,153.349345 73.563,153.2715 L74.334386,153.256607 L76.634264,153.196028 C78.16172,153.1625 79.6796,153.1649 81.2,153.3365 C80.775,153.1285 80.344,152.9315 79.916,152.7275 L79.903,152.7375 C75.2357027,153.523581 70.4977151,151.38899 66.5278647,149.04066 L65.855,148.6365 L61.9099983,146.204344 C58.5066821,144.115207 55.0985556,142.128333 51.33,140.6615 Z M54.107,138.0955 C60.3370996,137.3255 65.3417108,139.693602 69.9609935,143.105566 L70.6183605,143.599864 L70.9452481,143.851915 L70.9452481,143.851915 L71.5957718,144.364973 L72.2424138,144.888841 L73.2062891,145.691944 L73.845608,146.236901 L74.8010504,147.065278 L75.7885051,147.933278 L77.4335866,149.387721 L78.0931496,149.967816 C78.3132675,150.160726 78.5336827,150.353099 78.754496,150.544683 L79.4182317,151.116813 C79.9725086,151.591194 80.5299054,152.059068 81.092,152.5165 L81.689,152.8025 L78.0220275,149.159657 L76.9991477,148.160821 L76.2115974,147.405317 L75.6772133,146.900843 L74.8620904,146.145904 L74.031286,145.396662 L73.4690237,144.902317 L72.9002707,144.41348 L72.3252187,143.931343 L71.7440592,143.457097 L71.1569838,142.991931 L70.564184,142.537036 C69.7700532,141.937887 68.9611682,141.369304 68.1395726,140.843987 L67.5210246,140.45831 L67.210023,140.271928 L67.210023,140.271928 L66.5846844,139.912822 C62.610427,137.698028 58.3782,136.638535 54.107,138.0955 Z M50.751,139.7745 L50.504,139.9385 L50.565,139.9915 C50.586,139.9885 50.6,139.9755 50.622,139.9805 C53.76292,140.67886 56.6139152,142.171161 59.3573562,143.838286 L60.3214605,144.432934 L61.2784147,145.036051 L63.178,146.2435 C68.344,149.5075 72.946,151.7285 78.96,152.2765 L76.3612314,151.074429 C74.0518099,150.00107 71.7577273,148.890591 69.589,147.5495 C68.6665,146.97925 67.7366875,146.3515 66.795375,145.706047 L65.087688,144.533708 C62.7918,142.96802 60.4152,141.4379 57.9,140.4935 C55.767,140.1415 53.501,140.0105 50.949,139.9205 C50.845,139.9165 50.786,139.8505 50.751,139.7745 Z M52.609,138.7215 C52.465,138.7915 52.32,138.8525 52.176,138.9275 C54.013,138.7965 55.776,139.1045 57.48,139.6775 C60.16,139.9885 62.738,140.6935 65.269,142.1965 C67.06375,143.262625 68.7433281,144.456719 70.4029727,145.67152 L72.0595,146.88925 L73.389376,147.857356 C75.17072,149.13846 76.9944,150.3699 78.976,151.4215 C77.7955455,150.497818 76.7045868,149.465506 75.6318052,148.410314 L73.79725,146.595 C72.1075,144.93975 70.362,143.349 68.284,142.1555 C63.208,139.2385 58.38,137.9175 52.609,138.7215 Z M60.88,141.1745 C62.5984,142.0949 64.2556,143.1989 65.864344,144.299876 L67.457408,145.392932 C67.98336,145.75234 68.5044,146.1045 69.021,146.4425 C70.293,147.2745 71.639,148.0125 73.017,148.7085 C72.335,148.2165 71.66564,147.7037 71.00508,147.187892 L69.04596,145.649236 C68.72256,145.39722 68.4004,145.1489 68.079,144.9065 C65.598,143.0325 63.282,141.8895 60.88,141.1745 Z M86.098,139.3255 C86.383,139.3275 86.671,139.5465 86.756,139.8095 C87.817,139.6485 88.946,139.7965 89.785,140.3315 C90.021,140.4825 89.801,140.7805 89.586,140.7685 L89.3566658,140.752269 L88.3872222,140.666352 C87.557,140.601833 86.6956667,140.597167 85.989,140.9685 C85.926,141.0285 85.855,141.0835 85.786,141.1405 L85.824,141.2645 C85.9106667,141.4865 85.9244444,141.6605 85.9242963,141.852574 L85.921,142.1625 C85.923,142.3615 85.774,142.5115 85.57,142.4855 C84.721,142.3765 84.129,141.5995 84.278,140.7055 C84.434,139.7665 85.189,139.3165 86.098,139.3255 Z M91.803,131.6725 C91.639,133.2295 91.652,134.7705 91.913,136.2705 L91.9991536,136.487 L91.9998862,131.758957 C91.9226797,131.778929 91.8352721,131.751199 91.803,131.6725 Z M84.2746607,56.7495 C83.6284607,57.04515 83.1572207,57.6074925 82.7216106,58.2172807 L82.2213697,58.937332 C81.8638951,59.4486094 81.4935357,59.933625 81.0296607,60.2655 C79.9796607,61.0195 78.9056607,61.3715 77.6426607,61.6035 C75.5916607,61.9805 72.5746607,61.5305 71.0276607,59.9125 C70.8552629,59.9922955 70.6818947,60.0720911 70.5027757,60.1480624 C74.3752343,63.1808368 77.123228,68.2021303 78.675,72.4315 C80.5893771,77.6482086 80.2261798,82.8980524 79.3790614,88.1659885 L79.2037169,89.2198124 L79.0186566,90.2740921 L78.7352419,91.8269991 L78.4505532,93.3660888 C78.1672124,94.9055652 77.89286,96.44616 77.672,97.9875 L77.919,98.6345 L78.217,98.8215 C78.443,98.9505 78.366,99.2595 78.176,99.3125 C78.781,100.9035 79.385,102.5045 79.975,104.1265 C82.207,101.3245 84.883,98.8775 87.83,96.9965 C88.077,96.8395 88.4679926,96.9025 88.562,97.2185 C89.7726667,101.291167 88.8011111,105.6385 87.4482222,109.783463 L87.1730936,110.609616 L86.7483374,111.836872 L85.7569724,114.62975 L85.358,115.7895 C85.231,116.1665 85.12,116.5465 85.001,116.9245 C85.2507241,117.644086 85.5389738,118.350445 85.8349552,119.05231 L86.4281028,120.452633 C87.3546825,122.668517 88.152931,124.897707 87.845,127.4175 C87.839,127.4655 87.812,127.4915 87.786,127.5185 C89.035,129.8615 90.195,132.2395 91.241,134.6565 C91.049658,132.400355 91.3797299,130.152478 91.9988869,127.93374 L91.9978341,124.890812 C90.1786926,121.851156 90.7578876,118.299192 91.9997397,114.999081 L91.9991536,65.792 L91.7197268,65.68079 C91.1372061,65.4462851 90.563388,65.2066818 90.0116607,64.9435 C89.8136607,65.6685 89.4066607,66.2955 88.7396607,66.2705 C88.5446607,66.4445 88.3136607,66.5875 88.0436607,66.6755 C86.6146607,67.1405 85.2966607,66.4065 85.0346607,64.9285 L85.0166607,64.7575 L84.9976607,64.8055 C84.9196607,64.9865 84.6616607,64.9465 84.6016607,64.7785 C84.1552607,63.54106 85.0092383,62.2732072 86.1098729,61.6951167 L86.2486607,61.6265 C86.3896607,61.5425 86.5356607,61.4895 86.6896607,61.4645 L86.9062533,61.4029444 C86.9425496,61.3943889 86.978994,61.3875 87.0156607,61.3835 C87.0996607,61.3705 87.1546607,61.4165 87.1936607,61.4765 C87.3796607,61.5165 87.5646607,61.5825 87.7306607,61.6915 C87.7916607,61.7325 87.8406607,61.7895 87.8946607,61.8385 C88.8736607,61.6205 89.7386607,62.1105 90.0766607,63.1895 C90.1586607,63.4565 90.1766607,63.8585 90.1336607,64.2825 C90.7630929,64.4604687 91.3859725,64.6627531 92.0001463,64.8888003 L92.0001463,61.5624373 C90.6408003,60.3860792 89.2202153,59.2630018 87.7276607,58.1975 C87.5586607,58.0765 87.3856607,57.9685 87.2136607,57.8505 C86.2596607,57.3285 85.2766607,56.9745 84.2746607,56.7495 Z M85.439,131.3425 C86.071,131.7935 86.736,132.7465 86.087,133.4755 C85.709,133.8995 85.055,134.1815 84.5,133.9675 C84.251,133.8705 84.072,133.6995 83.934,133.4995 C83.851,133.6115 83.695,133.6505 83.553,133.5975 C83.014,133.3985 82.629,132.5425 82.584,131.9935 C82.549,131.5805 82.696,131.1225 83.077,130.9075 C83.831,130.4815 84.793,130.8815 85.439,131.3425 Z M87.156,98.9365 C87.8311702,103.098858 86.8193842,107.030292 85.2622052,110.901983 L84.9076517,111.761445 L84.7245117,112.190569 L84.7245117,112.190569 L84.348245,113.047864 L83.7640982,114.332206 L82.1769094,117.714778 L81.762847,118.607837 L81.3564333,119.502827 L80.9607999,120.40022 C79.0796693,124.744175 77.6860295,129.188736 78.371,133.9725 C79.853,131.023833 80.8016667,127.940944 81.678037,124.8065 L82.5473841,121.657932 L83.001,120.0555 C83.222,119.2945 83.453,118.5325 83.699,117.7715 C83.83325,117.3578 83.9775519,116.936253 84.1292263,116.507849 L84.4416113,115.642189 L84.7688932,114.760002 L85.621013,112.493765 L85.9629234,111.567579 L86.2746592,110.6998 C86.3259335,110.554629 86.3768141,110.409207 86.4272214,110.263564 L86.7233507,109.387284 C87.8318712,106.019822 88.6059875,102.566248 88.079,99.3835 C87.995,98.8775 87.648,98.7815 87.156,98.9365 Z M86.608,99.1805 C86.471,99.2565 86.327,99.3445 86.178,99.4415 C86.321,99.5185 86.411,99.7055 86.283,99.8775 L85.6025876,100.808382 L85.1462232,101.443929 L84.6888735,102.090954 L84.2315839,102.749038 L83.7753998,103.417759 L83.3213666,104.096698 L82.8705297,104.785434 L82.4239345,105.483549 L81.9826263,106.190622 L81.5476507,106.906232 L81.3328643,107.267108 L81.3328643,107.267108 L80.9093475,107.994738 C80.7696081,108.238552 80.6313598,108.483615 80.4947766,108.729855 L80.0901972,109.472041 C79.8868829,109.851734 79.6878621,110.234014 79.4937562,110.61863 L79.1122814,111.390904 C76.0534278,117.72204 74.4162374,124.632123 76.908,131.0335 C76.238,121.8255 78.558,112.2955 84.893,105.5955 C85.077,105.4025 85.351,105.6355 85.209,105.8545 L84.5590909,106.853784 C81.0214016,112.349552 78.1249714,117.864243 77.547,124.5755 C77.305,127.3915 77.392,130.1145 77.711,132.8015 L77.87,133.0995 C77.115,128.2215 78.622,123.4595 80.602,118.9635 L81.6900215,116.501207 L82.2204905,115.289931 L82.7372969,114.087594 C84.7725625,109.291812 86.3965,104.633 86.608,99.1805 Z M83.794,131.8775 L83.722,131.8775 L83.7167402,131.90594 L83.7192446,131.9167 L83.7192446,131.9167 L83.723,131.9505 C83.729,132.0125 83.734,132.0765 83.746,132.1385 C83.758,132.2005 83.778,132.2635 83.796,132.3255 C83.897,132.2735 84.025,132.2825 84.121,132.3925 L84.1691296,132.450177 L84.3392963,132.666796 C84.5058889,132.870056 84.7096667,133.065167 84.921,132.9585 L85.073125,132.88225 C85.1195,132.85675 85.165,132.8265 85.22,132.7775 L85.188,132.6845 L85.15,132.6375 L85.1055,132.577875 L85.0640892,132.529861 L85.0640892,132.529861 L84.8742773,132.357545 L84.724136,132.244836 L84.622968,132.176868 L84.59,132.1575 C84.352,132.0255 84.134,131.9335 83.958,131.8995 L83.794,131.8775 Z M85.475,99.9475 C85.2699,100.1054 85.0596,100.27572 84.846768,100.454963 L84.310957,100.919636 L84.310957,100.919636 L83.7738599,101.409347 L83.3494815,101.810981 L82.934952,102.214652 L82.342,102.810375 L81.9728439,103.191936 L81.318624,103.889669 L80.8081481,104.458773 L80.618672,104.679547 L80.43,104.9135 C78.522,107.4655 76.784,110.2275 75.706,113.2445 C73.3,119.9805 73.319,126.9125 77.086,132.9185 L77.042,132.4655 C73.7912553,127.033463 74.6248939,120.261621 77.1174856,113.928205 L77.4308273,113.154997 L77.4308273,113.154997 L77.7597621,112.386897 C77.9279628,112.004245 78.1016399,111.62378 78.2802366,111.245911 L78.6250361,110.531821 C78.741845,110.2949 78.8604828,110.059121 78.9808083,109.824588 L79.3467072,109.124831 L79.7218866,108.433171 L79.912692,108.090571 L79.912692,108.090571 L80.3002056,107.412219 L80.4967021,107.076623 L80.894646,106.412975 L81.2984856,105.759906 L81.707375,105.118035 L82.1204679,104.487984 L82.5369182,103.870372 L82.9558797,103.265819 L83.3765063,102.674947 L83.7979519,102.098375 L84.2193701,101.536724 L84.639915,100.990614 L85.0587404,100.460666 L85.475,99.9475 Z M38.805,108.8905 L40.1194727,110.214277 L42.7448555,112.865863 C44.9358906,115.072406 47.143625,117.26225 49.433,119.3685 C52.1141429,121.833071 54.931449,124.065806 57.7826676,126.262249 L60.9992034,128.728249 C62.0725561,129.55202 63.1452857,130.381 64.212,131.2255 C64.365,131.3455 64.207,131.6105 64.031,131.5165 C56.1000526,127.255447 49.1356648,120.588278 42.7174278,113.823061 L41.5203059,112.553998 L40.3353686,111.286017 L39.162,110.0225 L39.3153672,110.269373 L39.6160207,110.764548 L40.046376,111.496322 L40.5665,112.41075 L41.455,114.0055 L42.0062917,114.965112 L43.112875,116.922656 C44.791,119.877937 46.594,122.8605 49.099,125.0865 C51.8660909,127.545561 55.1158411,128.806592 58.4455323,129.915325 L61.0835049,130.778058 C62.6674463,131.299583 64.2455455,131.848682 65.775,132.5365 C65.062,131.9145 64.376,131.2695 63.715,130.6025 C61.9364054,129.03277 60.2054953,127.373843 58.488994,125.684262 L57.2037999,124.412245 L54.6371433,121.85568 L53.3494417,120.58211 L52.7594136,120.003845 L52.7594136,120.003845 L51.5737468,118.855943 C47.6070767,115.052259 43.4827438,111.49835 38.805,108.8905 Z M37.103,106.8215 C43.948118,107.958603 48.8731446,111.780328 53.176013,116.47963 L53.8014103,117.173387 L54.1110605,117.524571 L54.1110605,117.524571 L54.8772007,118.413826 L54.8772007,118.413826 L55.6333457,119.317251 L56.2322518,120.048541 L57.1227128,121.156776 L58.006408,122.274796 L59.791436,124.556069 L60.3891722,125.317611 C61.4267858,126.635623 62.4738259,127.941268 63.5526106,129.203475 L64.368,130.1415 L65.5265185,131.082981 L66.1101536,131.542967 L65.7520734,131.070382 C64.6201538,129.525968 63.7366156,127.807639 62.8946429,126.056705 L61.8909907,123.948976 C60.6282741,121.317362 59.2729453,118.739563 57.127,116.6925 C51.711,111.5255 44.685,107.5055 37.103,106.8215 Z M84.807,117.5365 C84.482,118.5965 84.169,119.6585 83.874,120.7205 C85.127,122.7535 86.315,124.8145 87.442,126.8985 C87.521087,124.581326 86.7320813,122.147241 85.8062596,119.872846 L85.4750089,119.077199 L84.807,117.5365 L84.807,117.5365 Z M36.993,107.0915 L37.877,107.9705 C42.0125517,109.862672 45.6074721,112.882253 48.9594618,116.040069 L50.3820234,117.398999 L50.3820234,117.398999 L52.701,119.6545 C55.111,121.9965 57.546,124.2875 60.046,126.4965 C59.2368923,125.508685 58.4509307,124.50504 57.6733586,123.500122 L55.6732851,120.909794 L54.8476717,119.85498 L54.2935036,119.158414 L53.7349641,118.468507 L53.1708842,117.786414 C52.9818042,117.56048 52.7916059,117.33604 52.6000946,117.113287 L52.0214261,116.450281 C48.1347759,112.066532 43.6449273,108.434336 36.993,107.0915 Z M91.9985898,123.613715 L91.999029,117.524656 C91.4598611,119.630723 91.3454696,121.713537 91.9985898,123.613715 Z M64.7656684,116.853592 L64.816,116.9185 C64.995,117.1975 65.286,117.3405 65.435,117.6655 C65.523,117.8595 65.398,118.1355 65.193,118.1955 C64.91,118.2775 64.41,118.3835 64.217,118.0585 C64.144,117.9345 64.107,117.8195 64.108,117.6755 L64.1210781,117.482281 C64.1213125,117.459125 64.12025,117.43725 64.117,117.4185 L64.065,117.3205 C63.8984118,116.900735 64.4776782,116.549178 64.7656684,116.853592 Z M69.042,111.1485 C69.346,111.4805 69.474,111.9705 69.386,112.4125 C69.284,112.9225 68.948,113.6995 68.414,113.8815 C67.9336667,114.044667 67.534,113.849035 67.2049867,113.506424 L67.117,113.4095 L67.117,113.4275 C67.097,113.6095 66.862,113.7395 66.701,113.6475 C65.751,113.1115 65.661,111.4155 66.616,110.8335 C67.384,110.3635 68.427,110.4755 69.042,111.1485 Z M61.492,112.4585 C61.764,112.929611 62.1379259,113.245068 62.6116708,113.40487 L62.794,113.4575 L62.82,113.4795 C62.9,113.4019 62.99792,113.34094 63.12656,113.323244 L63.2776296,113.315648 L63.366,113.3015 C63.404,113.2865 63.442,113.2875 63.485,113.2895 C64.5590385,113.141423 64.3174334,111.88018 63.3984843,111.449118 L63.285,111.4015 C62.193,110.9005 61.595,111.2525 61.492,112.4585 Z M67.131,111.7265 C67.09,111.7615 67.051,111.8275 67.021,111.9105 L67.2146428,112.232351 L67.3541873,112.446372 C67.6137695,112.828691 67.885375,113.1345 68.027,113.0135 C68.219,112.8515 68.437,112.4375 68.428,112.1805 C68.421,111.9465 68.366,111.8375 68.203,111.7215 C67.896,111.4995 67.397,111.4925 67.131,111.7265 Z M62.752,96.9775 C63.044,96.9975 63.064,97.4455 62.803,97.5335 C61.336,98.0305 59.726,97.8475 58.257,98.3555 C58.006,98.4415 57.752,98.5355 57.503,98.6395 C57.573,98.8635 57.621,99.0925 57.629,99.3155 L57.9277778,100.175426 L58.556,101.8935 C58.655,102.1635 58.337,102.3645 58.118,102.2055 C57.508,101.7665 57.047,101.2015 56.687,100.5725 C56.365,100.6345 56.017,100.5935 55.741,100.4285 C55.291,100.1605 54.855,99.7385 54.992,99.1615 C55.096,98.7215 55.44,98.5135 55.836,98.4135 L55.801,98.2925 C55.572,97.3965 56.74,96.9455 57.15,97.7805 C58.89,97.0565 60.904,96.8415 62.752,96.9775 Z M65.582,58.5595 C65.334,58.5775 65.237,58.7055 65.214,58.9015 C65.6735714,60.7782143 66.0793673,62.6507041 66.457344,64.5172434 L66.7751166,66.1156368 L67.2341729,68.5072338 L67.9825964,72.4752347 L68.3638924,74.4498096 L68.3638924,74.4498096 L68.7593704,76.417472 C70.2171324,83.4880477 72.0885102,90.4150714 75.863,97.0995 C75.893,97.1525 75.897,97.2065 75.885,97.2535 C76.15,97.4585 76.411,97.6675 76.693,97.8625 L76.0805312,96.3960271 C73.6428817,90.5183047 71.3882308,84.4975 70.623,78.2935 L70.2900588,75.5717441 L70.0291351,73.523662 L70.0291351,73.523662 L69.8411834,72.1587499 C69.1895922,67.6124168 68.2614828,63.1107759 66.287,58.9825 C66.06,58.8355 65.821,58.6975 65.582,58.5595 Z M66.873,72.3495 C66.969,73.8405 67.07,75.3315 67.206,76.8215 L67.2950506,77.7415744 L67.3936033,78.657892 C67.428183,78.962612 67.464564,79.2665661 67.5029638,79.5696148 L67.6244376,80.4759047 C68.4988696,86.648415 70.3131837,92.3817041 74.942,96.4725 C70.6834769,90.3706187 68.7473683,83.1135899 67.4275304,75.6804027 L67.1939709,74.3271909 L67.1939709,74.3271909 L66.9777557,73.0090884 L66.873,72.3495 L66.873,72.3495 Z M67.989,60.2535 C69.3184,63.2149 69.9301552,66.830596 70.3512536,70.1374828 L70.559272,71.854044 L70.8112479,73.9981456 C70.8320384,74.1681032 70.85292,74.33562 70.874,74.5005 C71.7338333,81.2150833 73.7154375,87.3406319 75.9676811,93.4486748 L76.588,95.1145 C76.3873056,93.2981759 76.2605955,91.3797702 76.1543137,89.4065365 L76.0528578,87.4167769 L75.9591519,85.5200762 L75.8843483,84.0957816 L75.8017716,82.683398 L75.7066291,81.2702868 L75.634256,80.3295412 L75.5093336,78.9230145 L75.5093336,78.9230145 L75.413425,77.9899073 C75.3796083,77.6796263 75.3438788,77.3701578 75.3060403,77.0616749 L75.1860011,76.1393568 L75.0521292,75.2239927 C74.1344526,69.2989786 72.2654532,63.8805571 67.989,60.2535 Z M68.367,59.5565 C72.15,62.8765 74.024,68.3615 75.063,73.1645 C76.404,79.3625 77.277,86.0515 77.543,92.5805 L77.752568,91.5682707 L77.9726178,90.5566882 L78.4216573,88.5343556 L78.6393942,87.5230511 C79.3837138,83.9828392 79.9070968,80.4341452 79.124,76.8235 C77.852,70.9665 74.097,62.6715 68.367,59.5565 Z M52.659,91.1835 C52.515,91.7115 52.67,92.0715 53.109,92.2685 C53.143,92.0365 53.406,91.8225 53.639,91.9605 L53.999,92.1545 C55.556,91.4865 52.852,89.6615 52.659,91.1835 Z M64.45,84.4195 C64.48,85.0345 64.401,85.7835 63.745,86.0405 C63.613,86.0915 63.488,86.0945 63.369,86.0755 L63.313,86.2232778 C63.303,86.2471667 63.292,86.2701667 63.279,86.2915 C63.186,86.4485 62.908,86.5475 62.795,86.3395 C62.661,86.0935 62.589,85.8005 62.572,85.5065 L62.4807407,85.3847593 L62.322,85.1535 C62.126,84.8575 62.471,84.5565 62.727,84.7005 C62.951,84.2555 63.398,84.0355 63.883,83.9445 C64.156,83.8915 64.438,84.1555 64.45,84.4195 Z M49.809,77.9015 C50.931,78.1895 51.021,79.3475 50.647,80.2845 C50.366,80.9875 49.723,81.5305 48.982,81.0445 C48.973,81.0355 48.965,81.0255 48.955,81.0195 C48.894,81.1105 48.779,81.1715 48.663,81.1665 C47.488,81.1125 46.99,79.6675 47.61,78.7855 C48.057,78.1485 49.032,77.7015 49.809,77.9015 Z M49.481336,78.899468 L49.374,78.9045 C49.103,78.9325 48.78,79.0775 48.58,79.2655 C48.749,79.6755 49.035,80.1675 49.438,80.3115 C49.5881538,80.3650385 49.6985444,80.0925178 49.7663751,79.8246288 L49.8092244,79.6297476 L49.843,79.4085 L49.843,79.4085 C49.8463333,79.3785 49.846,79.3356111 49.8441852,79.2919815 L49.833,79.1185 L49.802776,79.03282 C49.796072,79.01658 49.790584,79.00914 49.779848,78.99994 L49.759,78.9835 C49.7188,78.9511 49.65736,78.92158 49.573168,78.907684 L49.481336,78.899468 Z M50.046,73.5575 C49.722,73.6505 49.449,73.7925 49.256,74.0295 C49.112,74.2035 49.038,74.3555 49.023,74.5485 C49.164,74.7395 49.305,74.9315 49.461,75.1095 L49.6406132,75.3167044 C49.8734568,75.5797469 50.1811111,75.8917222 50.493,75.9835 L50.409,75.7955 C50.328,75.5955 50.632,75.4855 50.719,75.6785 L50.768,75.7815 L50.811125,75.6879583 L50.811125,75.6879583 L50.816,75.6735 C50.925,75.3395 50.977,74.9625 51.001,74.6125 C51.025,74.2435 50.95,73.8195 50.746,73.6605 C50.592,73.5425 50.275,73.4915 50.046,73.5575 Z M86.8676607,62.6695 L86.8226607,62.6995 C86.8106607,62.7085 86.8096607,62.7075 86.8066607,62.7085 L86.7566607,62.7665 L86.7566607,62.7665 L86.6356607,62.9275 C86.5386607,63.0855 86.4596607,63.2485 86.3926607,63.4195 C86.2866607,63.6865 86.2146607,64.1325 86.2216607,64.4575 C86.2356607,65.1865 86.4976607,65.6515 87.2726607,65.6155 C87.3376607,65.6115 87.3966607,65.5955 87.4566607,65.5865 C87.3876607,65.3657 87.3687007,65.14382 87.3602527,64.917188 L87.3456607,64.4565 C87.3156607,63.8465 87.1826607,63.2535 86.8756607,62.7235 C86.8646607,62.7055 86.8736607,62.6875 86.8676607,62.6695 Z M88.3576607,62.3955 C88.5316607,62.6845 88.6066607,62.9495 88.6426607,63.2375 C88.8686607,63.4635 89.0456607,63.7315 89.1686607,64.0195 L89.2466607,64.0415 L89.2740681,63.7691296 C89.2771051,63.7240556 89.2786607,63.6791667 89.2776607,63.6345 C89.2576607,62.9545 88.8766607,62.5585 88.3576607,62.3955 Z M82.6516607,57.4405 C79.7736607,59.3505 75.5646607,60.7015 72.3476607,59.4055 C72.3036607,59.3885 72.2806607,59.3555 72.2696607,59.3165 C72.1386607,59.3845 72.0086607,59.4495 71.8766607,59.5135 L72.0946523,59.6190224 L72.5356776,59.8236088 C72.6097062,59.8568987 72.6839851,59.8897546 72.7584963,59.9221314 L73.2082091,60.1102814 C75.8461283,61.1700729 78.7248314,61.532378 81.0766607,59.2625 C81.3821607,58.968 81.6501607,58.6535 81.9046607,58.342125 L82.4027718,57.7303935 C82.4851607,57.6314167 82.5678273,57.5345 82.6516607,57.4405 Z M81.7096607,56.4745 C79.8306607,57.6235 77.4256607,58.0965 75.2666607,57.9075 C75.2346607,57.9055 75.2106607,57.8875 75.1926607,57.8685 C74.3556607,58.2495 73.5416607,58.6715 72.7216607,59.0915 L74.310582,59.0202901 L75.0943414,58.974641 C77.9547423,58.7863061 80.6668035,58.3356429 83.1936607,56.5725 C82.7036607,56.5095 82.2076607,56.4835 81.7096607,56.4745 Z M64.1456607,48.3745 L64.2643646,48.6151009 L64.6976451,49.5341094 L64.8955805,49.9399237 C65.364855,50.8675479 65.9112857,51.6587187 67.0636607,52.2815 C68.501543,53.0613824 70.3158268,53.2030779 71.9842974,53.2505832 L73.0316607,53.2735 C73.6766607,53.2865 74.3286607,53.2825 74.9836607,53.2765 L74.3539776,53.2036074 L73.5669231,53.1026103 L73.5669231,53.1026103 L72.7843007,52.986228 C69.8766207,52.51714 67.1596607,51.6277 65.7316607,49.2125 C65.6256607,49.0335 65.8406607,48.8425 66.0036607,48.9735 C68.3686607,50.8605 70.3856607,51.8835 73.4066607,52.3905 L74.2897857,52.5290972 L76.0515357,52.778625 C76.9301607,52.90375 77.8046607,53.039 78.6716607,53.2275 C77.7756607,52.8465 76.8646607,52.5055 75.9546607,52.1635 C73.1596607,52.2605 70.0866607,51.5005 68.0246607,49.5255 C66.7396607,49.1395 65.4466607,48.7595 64.1456607,48.3745 Z M70.0416607,50.1495 C70.5906607,50.4585 71.1436607,50.7595 71.7326607,51.0035 C72.7516607,51.4245 73.9056607,51.6925 75.0466607,51.8115 C73.4016607,51.2165 71.7276607,50.6765 70.0416607,50.1495 Z M56.4256607,29.4235 L56.6545125,29.6313889 L57.1206607,30.0265 C65.8726607,32.8445 74.8586607,36.7965 81.8636607,42.7325 L81.8766607,42.7605 L82.3786607,43.0605 C78.2046607,37.7995 73.0686607,34.2385 66.7066607,31.7905 C64.240375,30.8405714 61.9318801,30.1915663 59.3696388,29.9259523 L58.7736607,29.8715 C57.8846607,29.8025 57.1236607,29.6815 56.4256607,29.4235 Z M55.3806607,29.8935 C55.5003313,32.2506483 57.4263665,34.5558105 59.8506645,36.4700387 L60.3589239,36.8603966 C60.6161793,37.0526753 60.8778015,37.2405203 61.1423423,37.4235563 L61.6748862,37.7831051 L61.6748862,37.7831051 L62.2126387,38.1291628 L62.2126387,38.1291628 L62.7530252,38.4610624 L62.7530252,38.4610624 L63.2934712,38.7781368 C63.3834074,38.82971 63.4732389,38.8806377 63.562912,38.930906 L64.12461,39.2383966 L64.4029626,39.3853736 L64.4029626,39.3853736 L64.9528189,39.66531 L65.22358,39.7980771 L65.22358,39.7980771 L65.8853515,40.1082198 L65.8853515,40.1082198 L66.5208664,40.3860531 L67.0064754,40.5840469 L67.468598,40.7596311 L67.9042641,40.9120363 C68.114988,40.9823159 68.3146771,41.0436148 68.5016607,41.0955 C70.2261607,41.575 72.0241607,41.8025 73.8307857,41.9975 L75.3799205,42.1618032 C76.6701046,42.3006224 77.9552321,42.4548571 79.2116607,42.7045 L78.3333703,42.3834614 L77.8930868,42.2278108 L77.8930868,42.2278108 L77.0109039,41.9249032 L76.1274469,41.6313952 L74.3609385,41.0639775 L72.1644622,40.3692784 L71.2928897,40.0890342 L70.4269128,39.8042134 L69.5675883,39.512666 L68.7159731,39.2122418 L68.2933868,39.058029 L67.4553172,38.740258 C63.0122769,37.0093845 59.010898,34.6704153 56.1726607,30.2555 L55.3806607,29.8935 Z M58.6186607,32.3365 C61.7125496,35.5976111 65.5141545,37.420142 69.5985784,38.9105741 L70.5840527,39.262468 L71.5790819,39.6050084 L75.628643,40.9496176 L77.164208,41.4736852 L77.164208,41.4736852 L78.1895282,41.8382813 C78.7022385,42.0243311 79.2148607,42.2164333 79.7266607,42.4165 C77.4516607,41.0915 75.0876607,39.8725 72.6636607,38.6865 C69.4077857,37.094875 66.1358326,35.5920625 62.7854986,34.2276367 L61.3446607,33.6515 C60.3726607,33.2705 59.4566607,32.8465 58.6186607,32.3365 Z M59.5056607,31.7275 C60.880994,32.5541667 62.338994,33.2270556 63.8518088,33.8833519 L66.1586607,34.8725 C69.1016607,36.14375 71.9929107,37.5606875 74.8657388,38.9988594 L77.7336607,40.4395 L78.5396607,40.8685 C74.2239464,38.0863571 69.7046607,36.0516633 65.0871242,34.0898557 L61.3741321,32.523167 C60.7524725,32.2603798 60.1295654,31.9956905 59.5056607,31.7275 Z M91.6915817,31.045513 L91.6303938,31.9353956 L91.5813745,32.8003475 L91.5237343,34.0363482 L91.4756607,35.1785 C91.3968887,36.9758803 91.628219,38.7190424 91.9985729,40.4387803 L91.9991233,28.1566211 C91.8603052,29.1264104 91.7632795,30.1010068 91.6915817,31.045513 Z M86.7846607,32.3045 C86.7686607,32.3315 86.7686607,32.3585 86.7486607,32.3845 C86.5446607,32.6765 86.1766607,32.7805 85.8276607,32.7395 L85.9376607,32.9365 C86.038994,32.9491667 86.1407718,32.9689444 86.2450681,32.9907963 L86.4036607,33.0245 C86.6076607,33.0695 86.7266607,33.0965 86.7906607,32.9715 C86.8846607,32.7915 86.8596607,32.5505 86.7846607,32.3045 Z M85.6316607,30.7085 C85.4346607,30.7565 85.2816607,30.9045 85.1576607,31.0845 C85.2286607,31.1155 85.2916607,31.1685 85.3046607,31.2685 C85.3296607,31.4675 85.3816607,31.6615 85.4426607,31.8515 C85.4796607,31.8395 85.5136607,31.8215 85.5516607,31.8175 C85.7196607,31.8095 85.8886607,31.8585 86.0556607,31.8205 C86.2456607,31.7785 86.2876607,31.5895 86.2726607,31.3845 C86.1916607,31.2945 86.1946607,31.1975 86.2266607,31.1135 L86.1805866,30.9509815 L86.1596607,30.8875 C86.1446607,30.8445 86.1576607,30.8075 86.1676607,30.7695 C85.9906607,30.6995 85.8106607,30.6655 85.6316607,30.7085 Z M75.5736607,3.1725 C74.8006607,4.2515 74.2136607,5.4325 73.6656607,6.6435 C72.3346607,9.5845 72.2626607,12.9685 72.5426607,16.1115 C72.8839107,19.96275 74.3225982,23.4028125 76.0364888,26.7383906 L76.5329501,27.6888348 L77.0401267,28.6351824 L77.8116607,30.0505 L77.6956607,29.3665 C75.6576607,25.9255 74.5846607,21.9675 73.8976607,18.0385 C73.1929273,14.0000333 73.7121762,10.6149667 74.560581,7.09850296 L74.7994527,6.13562 L75.0506124,5.1626837 L75.5736607,3.1725 Z M76.8786607,2.0655 C77.984369,4.89458333 78.2356208,7.8741875 78.3087353,10.8873871 L78.328245,11.9520739 L78.3556607,14.6185 C78.3812607,16.4909 78.3779007,18.3617 78.3643327,20.232052 L78.3117567,25.842916 C78.3041407,26.77822 78.2986607,27.7137 78.2976607,28.6495 L78.5606607,29.5845 C78.5596607,29.4155 78.5576607,29.2475 78.5656607,29.0725 C78.5933807,28.38126 79.0839983,27.398652 79.6524818,26.4146423 L79.9679717,25.8795136 L80.7331429,24.6091002 L80.9631037,24.2097233 C81.1772718,23.8265859 81.3394107,23.49567 81.4076607,23.2485 C82.704958,18.5514189 81.5862436,12.6971954 80.0582365,7.8917971 L79.7674287,7.00361441 L79.6193461,6.56975106 L79.6193461,6.56975106 L79.2935407,5.653611 L79.1502088,5.28893381 L78.9721422,4.86764815 L78.8244607,4.539924 L78.6564859,4.18933052 C78.1836918,3.23506444 77.520794,2.17056667 76.8786607,2.0655 Z M75.7006607,4.1905 L75.416992,5.4526954 L75.145277,6.69687981 C74.5746053,9.38018512 74.1377783,12.0057353 74.1576607,15.0225 C74.1856607,19.0515 75.4136607,22.9025 77.0236607,26.5635 C76.2676607,23.0435 75.9276607,19.3855 75.7546607,16.2135 C75.5936607,13.2805 75.9726607,10.3865 75.7476607,7.4425 L75.6858951,6.634 C75.6275357,5.8189375 75.5926607,4.98925 75.7006607,4.1905 Z M76.6266607,3.0685 C76.1296924,4.773681 76.0634216,7.00594733 76.1307702,9.26477042 L76.1669485,10.2330041 C76.174053,10.394161 76.1816227,10.5550885 76.1895493,10.7156043 L76.2476911,11.7986413 L76.3667247,13.8756561 C76.4019705,14.5397064 76.4294221,15.169804 76.4389928,15.7489549 L76.4426607,16.1735 C76.4436607,18.8785 76.7566607,21.6995 77.3066607,24.4975 C77.2571071,22.5876786 77.3056323,20.6711129 77.3710207,18.7524729 L77.4653279,16.0654964 C77.6091262,11.7144962 77.6448393,7.36403571 76.6266607,3.0685 Z M46.3956607,5.2845 C46.2560849,5.91025758 46.69587,7.00774702 47.2832237,8.12372002 L47.5427227,8.60180439 C47.6313947,8.76066212 47.7218195,8.91857563 47.8127381,9.07422352 L48.0857166,9.53304885 L48.4842177,10.1784548 L49.3025311,11.4592925 L49.4106607,11.6365 C51.6426607,15.4825 54.5156607,18.4305 58.4846607,20.4475 C59.8171607,21.1233333 61.1979246,21.6529861 62.585141,22.1502459 L64.250222,22.7386916 C65.6359107,23.2282431 67.0113273,23.7309167 68.3346607,24.3605 L68.1656607,24.2255 C59.0136607,20.2525 51.7326607,13.8505 46.4596607,5.3545 L46.3956607,5.2845 Z M47.2586607,4.7595 C54.9926607,9.6575 62.3076607,15.8965 68.4296607,22.8485 L67.8897851,22.1016476 L66.0102099,19.4826786 L65.2009848,18.3677634 L64.3840514,17.2637666 L63.8332691,16.5360288 L63.2762442,15.816435 L62.9950388,15.4601035 L62.9950388,15.4601035 L62.4265378,14.7551943 C58.6075858,10.0924553 54.1846929,6.19208065 47.6556607,4.8095 C47.5076607,4.7785 47.3776607,4.7645 47.2586607,4.7595 Z M48.8616607,7.9445 C51.1966607,10.9385 53.6216607,13.8505 56.4796607,16.3795 C58.2534107,17.9476875 60.2568716,19.1651641 62.3142449,20.3000144 L63.4407386,20.9124407 L65.1366607,21.8215 L61.6996802,19.1636875 C59.7938794,17.6815 57.9065357,16.175875 56.0996607,14.5765 C53.5326607,12.6205 51.1256607,10.3165 48.8616607,7.9445 Z M46.7036607,4.8605 L46.6606607,4.8805 C48.4178035,6.38764286 50.10896,7.99501247 51.7814252,9.62540336 L54.9486319,12.7312353 C55.7269199,13.4912407 56.5076607,14.2456111 57.2956607,14.9865 C59.0076607,16.3751667 60.7654385,17.7073889 62.5322533,19.0285 L65.1846607,21.0075 C63.3816607,19.1025 61.6226607,17.1495 59.8146607,15.2885 C55.8766607,11.2355 51.3586607,8.0185 46.7036607,4.8605 Z" id="Shape" fill="rgba(229,229,229,.20)"></path>
    </g>
</svg>
